<svg width="772" height="487" viewBox="0 0 772 487" fill="none" xmlns="http://www.w3.org/2000/svg">
<path d="M663.691 244.732C591.156 166.702 477.72 201.166 477.72 201.166C477.72 201.166 514.133 56.81 378.882 10.6421C243.63 -35.5258 187.058 83.4702 187.058 83.4702C187.058 83.4702 118.781 -22.5209 -11.2687 49.0068C-141.319 120.534 -28.8254 485.881 -28.8254 485.881H717.012C717.012 485.881 736.227 322.763 663.691 244.732Z" fill="#FFE5E6"/>
<mask id="mask0" mask-type="alpha" maskUnits="userSpaceOnUse" x="-74" y="0" width="794" height="486">
<path d="M663.691 244.732C591.156 166.702 477.72 201.166 477.72 201.166C477.72 201.166 514.133 56.81 378.882 10.6421C243.63 -35.5258 187.058 83.4702 187.058 83.4702C187.058 83.4702 118.781 -22.5209 -11.2687 49.0068C-141.319 120.534 -28.8254 485.881 -28.8254 485.881H717.012C717.012 485.881 736.227 322.763 663.691 244.732Z" fill="#EBF2FB"/>
</mask>
<g mask="url(#mask0)">
<path d="M728.716 297.308H661.09V325.919H643.534V280.402H600.617V319.417H585.661V309.663H569.405V297.308H540.794V325.919H514.784V340.875H502.429V333.722H490.725V309.663H467.316V273.249H440.005V297.308H432.202V280.402H408.793V297.308H391.236V325.919H376.281V266.096H330.113V325.919H315.807V309.663H298.251V297.308H274.191V325.919H252.733V348.028H239.728V333.722H228.023V309.663H197.462V273.249H172.102V292.106H166.9V273.249H139.589V297.308H114.23V325.919H96.6729V273.249H51.1553V325.919H36.8499V319.417H-0.864685V485.881H728.716V297.308Z" fill="#D0DBEA"/>
<rect width="37.7145" height="10.404" transform="matrix(-1 0 0 1 369.778 272.599)" fill="#EDFFFC"/>
<rect width="37.7145" height="10.404" transform="matrix(-1 0 0 1 369.778 285.604)" fill="#EDFFFC"/>
<rect width="37.7145" height="10.404" transform="matrix(-1 0 0 1 369.778 298.609)" fill="#EDFFFC"/>
<rect width="37.7145" height="10.404" transform="matrix(-1 0 0 1 369.778 311.614)" fill="#EDFFFC"/>
<rect width="37.7145" height="10.404" transform="matrix(-1 0 0 1 369.778 324.619)" fill="#EDFFFC"/>
<rect width="37.7145" height="10.404" transform="matrix(-1 0 0 1 88.8699 273.899)" fill="#EDFFFC"/>
<rect width="37.7145" height="10.404" transform="matrix(-1 0 0 1 88.8699 286.904)" fill="#EDFFFC"/>
<rect width="37.7145" height="10.404" transform="matrix(-1 0 0 1 88.8699 299.909)" fill="#EDFFFC"/>
<rect width="37.7145" height="10.404" transform="matrix(-1 0 0 1 88.8699 312.914)" fill="#EDFFFC"/>
<rect width="37.7145" height="10.404" transform="matrix(-1 0 0 1 88.8699 325.919)" fill="#EDFFFC"/>
<rect width="19.5075" height="5.202" transform="matrix(-1 0 0 1 467.316 273.899)" fill="#EDFFFC"/>
<rect width="19.5075" height="5.202" transform="matrix(-1 0 0 1 467.316 280.402)" fill="#EDFFFC"/>
<rect width="19.5075" height="5.202" transform="matrix(-1 0 0 1 467.316 286.904)" fill="#EDFFFC"/>
<rect width="19.5075" height="5.202" transform="matrix(-1 0 0 1 467.316 293.407)" fill="#EDFFFC"/>
<rect width="19.5075" height="5.202" transform="matrix(-1 0 0 1 467.316 299.909)" fill="#EDFFFC"/>
<rect width="19.5075" height="5.202" transform="matrix(-1 0 0 1 467.316 306.412)" fill="#EDFFFC"/>
<rect width="19.5075" height="5.202" transform="matrix(-1 0 0 1 467.316 312.914)" fill="#EDFFFC"/>
<rect width="19.5075" height="5.202" transform="matrix(-1 0 0 1 467.316 319.417)" fill="#EDFFFC"/>
<rect width="19.5075" height="5.202" transform="matrix(-1 0 0 1 467.316 325.919)" fill="#EDFFFC"/>
<rect width="19.5075" height="5.202" transform="matrix(-1 0 0 1 467.316 332.422)" fill="#EDFFFC"/>
<rect width="19.5075" height="5.202" transform="matrix(-1 0 0 1 467.316 338.924)" fill="#EDFFFC"/>
<rect width="19.5075" height="5.202" transform="matrix(-1 0 0 1 467.316 345.427)" fill="#EDFFFC"/>
<rect width="19.5075" height="5.202" transform="matrix(-1 0 0 1 432.202 281.702)" fill="#EDFFFC"/>
<rect width="19.5075" height="5.202" transform="matrix(-1 0 0 1 432.202 288.205)" fill="#EDFFFC"/>
<rect width="19.5075" height="5.202" transform="matrix(-1 0 0 1 432.202 294.707)" fill="#EDFFFC"/>
<rect width="19.5075" height="5.202" transform="matrix(-1 0 0 1 432.202 301.21)" fill="#EDFFFC"/>
<rect width="19.5075" height="5.202" transform="matrix(-1 0 0 1 432.202 307.712)" fill="#EDFFFC"/>
<rect width="19.5075" height="5.202" transform="matrix(-1 0 0 1 432.202 314.215)" fill="#EDFFFC"/>
<rect width="19.5075" height="5.202" transform="matrix(-1 0 0 1 432.202 320.717)" fill="#EDFFFC"/>
<rect width="19.5075" height="5.202" transform="matrix(-1 0 0 1 432.202 327.22)" fill="#EDFFFC"/>
<rect width="19.5075" height="5.202" transform="matrix(-1 0 0 1 432.202 333.722)" fill="#EDFFFC"/>
<rect width="19.5075" height="5.202" transform="matrix(-1 0 0 1 432.202 340.225)" fill="#EDFFFC"/>
<rect width="19.5075" height="5.202" transform="matrix(-1 0 0 1 432.202 346.727)" fill="#EDFFFC"/>
<rect width="19.5075" height="5.202" transform="matrix(-1 0 0 1 432.202 353.23)" fill="#EDFFFC"/>
<rect width="19.5075" height="5.202" transform="matrix(-1 0 0 1 432.202 359.732)" fill="#EDFFFC"/>
<rect width="19.5075" height="5.202" transform="matrix(-1 0 0 1 432.202 366.235)" fill="#EDFFFC"/>
<rect width="19.5075" height="5.202" transform="matrix(-1 0 0 1 196.812 273.899)" fill="#EDFFFC"/>
<rect width="19.5075" height="5.202" transform="matrix(-1 0 0 1 196.812 280.402)" fill="#EDFFFC"/>
<rect width="19.5075" height="5.202" transform="matrix(-1 0 0 1 196.812 286.904)" fill="#EDFFFC"/>
<rect width="19.5075" height="5.202" transform="matrix(-1 0 0 1 196.812 293.407)" fill="#EDFFFC"/>
<rect width="19.5075" height="5.202" transform="matrix(-1 0 0 1 196.812 299.909)" fill="#EDFFFC"/>
<rect width="19.5075" height="5.202" transform="matrix(-1 0 0 1 196.812 306.412)" fill="#EDFFFC"/>
<rect width="19.5075" height="5.202" transform="matrix(-1 0 0 1 196.812 312.914)" fill="#EDFFFC"/>
<rect width="19.5075" height="5.202" transform="matrix(-1 0 0 1 196.812 319.417)" fill="#EDFFFC"/>
<rect width="19.5075" height="5.202" transform="matrix(-1 0 0 1 196.812 325.919)" fill="#EDFFFC"/>
<rect width="19.5075" height="5.202" transform="matrix(-1 0 0 1 196.812 332.422)" fill="#EDFFFC"/>
<rect width="19.5075" height="5.202" transform="matrix(-1 0 0 1 196.812 338.924)" fill="#EDFFFC"/>
<rect width="19.5075" height="5.202" transform="matrix(-1 0 0 1 196.812 345.427)" fill="#EDFFFC"/>
<rect width="19.5075" height="5.202" transform="matrix(-1 0 0 1 166.9 273.899)" fill="#EDFFFC"/>
<rect width="19.5075" height="5.202" transform="matrix(-1 0 0 1 166.9 280.402)" fill="#EDFFFC"/>
<rect width="19.5075" height="5.202" transform="matrix(-1 0 0 1 166.9 286.904)" fill="#EDFFFC"/>
<rect width="19.5075" height="5.202" transform="matrix(-1 0 0 1 166.9 293.407)" fill="#EDFFFC"/>
<rect width="19.5075" height="5.202" transform="matrix(-1 0 0 1 166.9 299.909)" fill="#EDFFFC"/>
<rect width="19.5075" height="5.202" transform="matrix(-1 0 0 1 166.9 306.412)" fill="#EDFFFC"/>
<rect width="19.5075" height="5.202" transform="matrix(-1 0 0 1 166.9 312.914)" fill="#EDFFFC"/>
<rect width="19.5075" height="5.202" transform="matrix(-1 0 0 1 166.9 319.417)" fill="#EDFFFC"/>
<rect width="19.5075" height="5.202" transform="matrix(-1 0 0 1 166.9 325.919)" fill="#EDFFFC"/>
<rect width="19.5075" height="5.202" transform="matrix(-1 0 0 1 166.9 332.422)" fill="#EDFFFC"/>
<rect width="19.5075" height="5.202" transform="matrix(-1 0 0 1 166.9 338.924)" fill="#EDFFFC"/>
<rect width="19.5075" height="5.202" transform="matrix(-1 0 0 1 166.9 345.427)" fill="#EDFFFC"/>
<rect width="19.5075" height="5.202" transform="matrix(-1 0 0 1 166.9 351.929)" fill="#EDFFFC"/>
<rect width="19.5075" height="5.202" transform="matrix(-1 0 0 1 166.9 358.432)" fill="#EDFFFC"/>
<rect width="19.5075" height="5.202" transform="matrix(-1 0 0 1 166.9 364.934)" fill="#EDFFFC"/>
<rect width="19.5075" height="5.202" transform="matrix(-1 0 0 1 166.9 371.437)" fill="#EDFFFC"/>
</g>
<rect width="326.426" height="44.217" transform="matrix(-1 0 0 1 399.69 422.156)" fill="black"/>
<path d="M307.354 401.265C307.354 401.265 276.792 381.757 247.531 373.304C224.122 368.752 159.097 373.954 159.097 373.954C136.028 379.7 103.176 398.013 103.176 398.013L66.1112 401.915L64.1605 411.669H67.4117V416.871H64.1605V422.723C60.9092 425.974 61.5595 434.427 63.5102 437.028V448.083L67.4117 453.285V458.487L73.264 464.989H103.176C103.176 464.989 101.225 428.575 133.737 430.526C166.25 432.477 161.048 468.891 161.048 468.891L321.66 471.492C321.66 471.492 315.807 433.777 348.97 433.777C382.133 433.777 376.931 471.492 376.931 471.492H396.438L408.793 464.989V458.487H404.892V448.083H408.793V438.329L402.941 425.324C402.941 425.324 400.34 418.821 386.685 414.27C373.029 409.718 307.354 401.265 307.354 401.265Z" fill="#FF2929"/>
<path d="M320.359 463.689C258.585 458.487 162.348 460.437 162.348 460.437" stroke="black"/>
<path d="M396.438 425.974C387.985 424.023 371.079 424.023 371.079 424.023L381.483 436.378H404.892C404.892 436.378 401.64 429.876 396.438 425.974Z" fill="white"/>
<path d="M396.438 426.624C393.837 425.974 391.887 426.624 391.887 426.624L395.788 435.728L404.241 435.728C404.241 435.728 400.34 429.876 396.438 426.624Z" fill="#E6E6E6"/>
<path d="M218.715 378.922C218.178 378.938 217.762 378.957 217.476 378.973L218.762 459.949L302.336 461.877C302.353 461.624 302.374 461.273 302.399 460.832C302.455 459.846 302.526 458.41 302.587 456.611C302.709 453.012 302.79 447.962 302.627 442.163C302.304 430.608 301.016 416.114 297.177 404.183C276.163 389.991 256.129 383.695 241.343 380.948C233.934 379.572 227.842 379.086 223.607 378.945C221.49 378.874 219.836 378.889 218.715 378.922Z" stroke="black"/>
<path d="M128.474 401.343C128.44 401.383 128.411 401.417 128.385 401.447V424.834C147.756 425.3 158.181 434.101 163.746 442.856C166.544 447.259 168.106 451.638 168.969 454.915C169.4 456.554 169.657 457.92 169.807 458.878C169.877 459.323 169.923 459.681 169.953 459.937H219.064L218.01 379.006H174.709C160.534 379.329 148.925 384.968 140.849 390.541C136.812 393.326 133.663 396.092 131.524 398.159C130.456 399.193 129.64 400.052 129.092 400.651C128.819 400.95 128.612 401.184 128.474 401.343Z" stroke="black"/>
<path d="M222.021 403.365L296.287 403.365C281.889 390.774 263.47 384.672 248.491 381.725C240.836 380.218 234.092 379.539 229.262 379.235C226.848 379.084 224.913 379.026 223.583 379.007C222.918 378.997 222.404 378.997 222.057 378.999C222.045 378.999 222.033 378.999 222.021 378.999V403.365Z" fill="#D1FCFF" stroke="black"/>
<path d="M127.045 398.325L126.511 402.065H152.094V383.922L127.045 398.325Z" fill="#D1FCFF" stroke="black"/>
<path d="M156.242 381.795C156.01 381.901 155.827 381.991 155.695 382.058V402.065H213.218V379.006H167.888C163.883 379.328 160.762 380.13 158.647 380.849C157.588 381.209 156.781 381.548 156.242 381.795Z" fill="#D1FCFF" stroke="black"/>
<path d="M402.941 459.787C400.34 459.787 393.837 459.787 393.837 459.787L395.788 463.689L404.892 463.689C404.892 463.689 404.892 461.738 402.941 459.787Z" fill="black" fill-opacity="0.54"/>
<path d="M406.192 448.083C405.886 448.083 404.892 448.083 404.892 448.083V458.487H406.192C406.192 458.487 406.422 453.285 406.192 448.083Z" fill="#C60000"/>
<path d="M287.196 399.314C274.842 394.981 271.59 397.363 267.688 398.664C266.167 401.877 266.225 404.527 267.688 407.767C272.24 410.368 278.093 410.368 287.846 407.767C288.926 404.637 289.314 402.654 287.196 399.314Z" fill="#F30D0D"/>
<path d="M287.196 399.964C274.842 395.631 272.241 398.013 268.339 399.314C267.038 399.964 267.4 406.114 267.4 406.114C271.952 408.715 277.804 409.365 287.558 406.764C289.147 403.866 287.196 399.964 287.196 399.964Z" fill="#FF2929"/>
<path d="M243.586 420.224C232.708 418.912 229.844 419.633 226.408 420.027C225.069 420.999 225.12 421.802 226.408 422.783C230.417 423.57 235.57 423.57 244.159 422.783C245.109 421.835 245.451 421.235 243.586 420.224Z" fill="black" fill-opacity="0.26"/>
<path d="M162.955 420.224C152.077 418.912 149.213 419.633 145.777 420.027C144.437 420.999 144.489 421.802 145.777 422.783C149.786 423.57 154.939 423.57 163.528 422.783C164.478 421.835 164.82 421.235 162.955 420.224Z" fill="black" fill-opacity="0.26"/>
<path d="M92.1211 409.718H65.4608V411.669H67.4116V416.871H64.1603V422.073H83.0176L92.1211 409.718Z" fill="#C60000"/>
<path d="M71.9634 409.718H65.4609V411.669H67.4117V416.871H64.1604V422.073H71.9634V416.871H73.2639V411.669H71.9634V409.718Z" fill="#B10000"/>
<circle r="26.01" transform="matrix(-1 0 0 1 348.97 459.787)" fill="#2E3A63"/>
<circle r="17.707" transform="matrix(-1 0 0 1 348.97 459.787)" fill="#2E3A63" stroke="#B1D0FC"/>
<circle r="6.5025" transform="matrix(-1 0 0 1 348.97 459.787)" fill="#B1D0FC"/>
<path d="M351.636 442.23H346.434L347.735 455.235H350.336L351.636 442.23Z" fill="#B1D0FC"/>
<path d="M335.447 448.083L332.983 452.664L344.521 457.392L345.753 455.101L335.447 448.083Z" fill="#B1D0FC"/>
<path d="M362.113 448.083L364.576 452.664L353.038 457.392L351.806 455.101L362.113 448.083Z" fill="#B1D0FC"/>
<path d="M363.806 469.511L366.145 464.864L354.557 460.488L353.388 462.811L363.806 469.511Z" fill="#B1D0FC"/>
<path d="M334.065 468.672L331.726 464.025L343.315 459.648L344.484 461.972L334.065 468.672Z" fill="#B1D0FC"/>
<path d="M351.571 476.694H346.369L347.669 463.689H350.27L351.571 476.694Z" fill="#B1D0FC"/>
<circle r="26.01" transform="matrix(-1 0 0 1 131.786 459.787)" fill="#2E3A63"/>
<circle r="17.707" transform="matrix(-1 0 0 1 131.786 459.787)" fill="#2E3A63" stroke="#B1D0FC"/>
<circle r="6.5025" transform="matrix(-1 0 0 1 131.787 459.787)" fill="#B1D0FC"/>
<path d="M134.453 442.23H129.251L130.551 455.235H133.152L134.453 442.23Z" fill="#B1D0FC"/>
<path d="M118.263 448.083L115.799 452.664L127.338 457.392L128.57 455.101L118.263 448.083Z" fill="#B1D0FC"/>
<path d="M144.929 448.083L147.393 452.664L135.854 457.392L134.622 455.101L144.929 448.083Z" fill="#B1D0FC"/>
<path d="M146.623 469.511L148.962 464.864L137.373 460.488L136.204 462.811L146.623 469.511Z" fill="#B1D0FC"/>
<path d="M116.882 468.672L114.543 464.025L126.131 459.648L127.3 461.972L116.882 468.672Z" fill="#B1D0FC"/>
<path d="M134.387 476.694H129.185L130.486 463.689H133.087L134.387 476.694Z" fill="#B1D0FC"/>
<circle cx="414.973" cy="463.72" r="22.2799" fill="black"/>
<circle cx="414.973" cy="463.72" r="14.9472" fill="#C4C4C4"/>
<path d="M402.915 463.438C405.736 463.438 408.838 465.976 409.966 467.668C411.094 469.361 412.222 472.181 412.222 475.283C412.222 475.283 406.864 474.437 404.89 471.053C402.915 467.668 402.915 463.438 402.915 463.438Z" fill="#DCDCDC"/>
<path d="M426.328 460.732C423.583 461.381 421.148 464.565 420.44 466.471C419.731 468.378 419.282 471.382 419.996 474.401C419.996 474.401 425.016 472.345 426.158 468.597C427.301 464.849 426.328 460.732 426.328 460.732Z" fill="#DCDCDC"/>
<path d="M422.528 454.568C420.925 452.247 417.073 451.137 415.04 451.17C413.007 451.203 410.045 451.878 407.492 453.641C407.492 453.641 411.233 457.569 415.14 457.27C419.047 456.972 422.528 454.568 422.528 454.568Z" fill="#DCDCDC"/>
<path d="M418.145 474.719C418.145 472.463 418.145 469.078 417.017 468.514C415.888 467.95 414.196 468.514 414.196 468.514C414.196 468.514 413.35 474.155 414.76 475.001C416.17 475.847 418.145 474.719 418.145 474.719Z" fill="#DCDCDC"/>
<path d="M411.163 459.356C409.198 458.248 406.25 456.586 405.204 457.292C404.159 457.997 403.819 459.748 403.819 459.748C403.819 459.748 408.317 463.255 409.747 462.443C411.176 461.63 411.163 459.356 411.163 459.356Z" fill="#DCDCDC"/>
<path d="M420.072 462.235C422.065 461.178 425.056 459.593 425.026 458.332C424.996 457.071 423.705 455.841 423.705 455.841C423.705 455.841 418.325 457.735 418.238 459.377C418.151 461.019 420.072 462.235 420.072 462.235Z" fill="#DCDCDC"/>
<circle cx="537.371" cy="463.72" r="22.2799" fill="black"/>
<circle cx="537.371" cy="463.72" r="14.9472" fill="#C4C4C4"/>
<path d="M525.313 463.438C528.134 463.438 531.236 465.976 532.364 467.668C533.492 469.361 534.62 472.181 534.62 475.283C534.62 475.283 529.262 474.437 527.288 471.053C525.313 467.668 525.313 463.438 525.313 463.438Z" fill="#DCDCDC"/>
<path d="M548.726 460.732C545.981 461.381 543.546 464.565 542.837 466.471C542.129 468.378 541.68 471.382 542.394 474.401C542.394 474.401 547.414 472.345 548.556 468.597C549.699 464.849 548.726 460.732 548.726 460.732Z" fill="#DCDCDC"/>
<path d="M544.926 454.568C543.323 452.247 539.471 451.137 537.438 451.17C535.405 451.203 532.443 451.878 529.89 453.641C529.89 453.641 533.631 457.569 537.538 457.27C541.445 456.972 544.926 454.568 544.926 454.568Z" fill="#DCDCDC"/>
<path d="M540.543 474.719C540.543 472.463 540.543 469.079 539.415 468.515C538.286 467.95 536.594 468.515 536.594 468.515C536.594 468.515 535.748 474.155 537.159 475.001C538.569 475.847 540.543 474.719 540.543 474.719Z" fill="#DCDCDC"/>
<path d="M533.561 459.356C531.596 458.248 528.648 456.586 527.602 457.292C526.557 457.997 526.217 459.748 526.217 459.748C526.217 459.748 530.715 463.255 532.145 462.443C533.574 461.63 533.561 459.356 533.561 459.356Z" fill="#DCDCDC"/>
<path d="M542.47 462.235C544.463 461.178 547.454 459.593 547.424 458.332C547.394 457.071 546.103 455.841 546.103 455.841C546.103 455.841 540.723 457.735 540.636 459.377C540.549 461.019 542.47 462.235 542.47 462.235Z" fill="#DCDCDC"/>
<rect x="523.552" y="444.177" width="5.64047" height="24.9588" transform="rotate(-29.0261 523.552 444.177)" fill="black"/>
<circle cx="536.525" cy="461.746" r="1.75619" fill="black" stroke="#C4C4C4"/>
<path d="M407.922 424.237C409.7 420.753 402.564 415.776 402.564 415.776L409.897 410.7L410.743 407.597L415.537 405.905C415.537 405.905 425.69 414.084 433.869 421.699C462.635 422.827 469.404 427.903 469.404 427.903L467.711 431.287V434.954C467.711 434.954 472.788 444.825 474.48 454.977C474.48 454.977 495.032 464.744 506.913 460.054C517.63 455.823 531.731 435.8 531.731 435.8C531.731 435.8 532.577 432.98 531.731 431.005C523.27 421.699 516.219 417.468 503.246 411.264C500.708 403.649 498.17 394.906 498.17 394.906H511.989L526.936 412.674L554.857 438.338L554.575 441.44C554.575 441.44 542.73 438.674 541.602 439.184C529.757 444.543 520.732 460.054 510.579 471.899L483.787 469.361L454.738 464.002L405.384 426.775C405.384 426.775 407.285 425.485 407.922 424.237Z" fill="#FFE600"/>
<path d="M491.683 367.832C491.51 366.986 493.657 361.628 499.016 360.218C505.562 358.495 505.85 376.618 505.85 376.618C505.85 376.618 503.95 376.596 502.964 376.618C504.656 368.678 492.857 373.56 491.683 367.832Z" fill="#C9B500"/>
<path d="M416.665 406.751C416.665 406.751 416.383 402.803 422.306 402.803C428.228 402.803 437.253 406.494 440.919 407.315C449.662 408.161 466.865 406.348 468.276 406.751C472.224 407.879 473.82 412.24 473.634 416.622C473.481 420.215 469.404 424.801 469.404 424.801V427.621C469.404 427.621 458.123 423.109 433.869 421.699C427.382 416.058 416.665 406.751 416.665 406.751Z" fill="black"/>
<path d="M416.248 415.883C421.272 417.933 422.722 419.042 425.798 421.888C426.819 422.833 425.619 424.028 424.555 423.865C424.555 423.865 418.016 420.696 415.005 417.86C414.684 416.07 416.248 415.883 416.248 415.883Z" fill="#C4C4C4"/>
<path d="M406.513 427.621L413.846 433.262L391.002 449.901L387.335 449.901C397.488 440.03 402.564 438.056 406.513 427.621Z" fill="black"/>
<path d="M504.374 471.335L446.841 471.899L442.047 468.796L433.586 465.412L433.023 448.209L454.456 464.002L483.787 469.361L504.374 471.335Z" fill="black"/>
<path d="M553.729 437.21C553.729 437.21 528.064 412.11 502.682 409.854C501.272 403.931 498.17 394.906 498.17 394.906C498.17 394.906 506.067 394.342 511.989 394.906C524.116 412.392 553.729 437.21 553.729 437.21Z" fill="black" fill-opacity="0.21"/>
<path d="M402.564 415.776C406.512 418.878 407.932 420.913 408.204 422.545C408.486 424.237 407.64 424.801 405.384 426.775C405.384 426.775 401.436 426.775 400.59 423.955C399.095 418.974 402.564 415.776 402.564 415.776Z" fill="#FF0000"/>
<path d="M407.923 424.237L443.457 444.26C443.457 444.26 442.893 445.953 444.022 447.645C459.533 459.208 485.197 463.72 485.197 463.72L483.787 469.361C483.787 469.361 461.225 465.412 454.457 463.72C450.508 461.746 409.333 429.877 405.384 426.775C405.384 426.775 406.795 425.929 407.923 424.237Z" fill="#C9B500"/>
<path d="M503.246 416.34L507.759 413.238C507.759 413.238 515.092 416.622 525.809 425.083C532.512 430.375 533.423 434.108 530.885 437.21C527.844 440.927 517.066 454.695 508.887 458.926C501.837 462.573 501.555 456.952 502.683 453.003C513.681 431.851 508.887 422.827 503.246 416.34Z" fill="black"/>
<path d="M511.143 382.215H515.091C515.091 382.215 519.756 384.569 519.604 387.292C519.489 389.337 518.758 390.676 516.501 391.522C509.169 386.164 511.143 382.215 511.143 382.215Z" fill="#96FFF2"/>
<path d="M511.706 394.906L497.606 395.006C496.196 390.676 496.477 387.292 496.477 387.292C496.477 387.292 491.966 387.574 491.401 387.292C490.769 386.258 490.769 385.223 491.401 384.189C492.248 383.625 496.477 384.189 496.477 384.189L496.477 382.779C496.477 382.779 493.996 383.061 493.658 382.779C492.642 381.933 492.798 380.399 493.658 379.395C493.899 379.113 497.606 379.395 497.606 379.395C497.606 379.395 498.734 376.575 503.81 376.575C511.706 376.857 515.937 382.779 515.937 382.779L514.527 382.215L511.143 382.215C511.143 382.215 510.297 386.446 516.501 391.522C514.245 392.368 510.579 392.086 510.579 392.086C510.297 393.496 511.706 394.906 511.706 394.906Z" fill="#404040"/>
<circle cx="440.355" cy="461.464" r="5.35845" fill="#282A29"/>
<path d="M453.892 463.438C453.892 463.438 448.534 475.283 438.663 475.283C433.472 475.283 425.972 471.335 425.972 471.335L419.485 470.206L395.231 453.849C396.218 449.622 398.044 447.134 401.718 444.824L425.972 461.464L429.356 466.54C429.356 466.54 434.217 471.02 438.099 471.335C446.842 472.043 451.071 461.464 451.071 461.464L453.892 463.438Z" fill="#282A29"/>
<path d="M425.69 461.182L429.356 466.54L425.408 471.335L419.485 470.207L425.69 461.182Z" fill="#C4C4C4"/>
<path d="M401.718 444.824L403.41 445.953L396.642 454.695L395.231 453.849C396.078 450.183 398.052 446.799 401.718 444.824Z" fill="#C4C4C4"/>
<path d="M403.105 449.013C403.568 448.275 404.456 448.407 404.654 448.979C404.857 449.564 404.654 456.653 404.246 457.391C404.01 457.819 403.211 458.217 402.709 457.391C402.206 456.565 402.643 449.752 403.105 449.013Z" fill="black"/>
<path d="M405.977 450.734C406.44 449.995 407.328 450.128 407.526 450.7C407.729 451.284 407.526 458.373 407.118 459.112C406.882 459.54 406.084 459.937 405.581 459.112C405.078 458.286 405.515 451.473 405.977 450.734Z" fill="black"/>
<path d="M408.849 452.455C409.312 451.716 410.2 451.848 410.398 452.42C410.601 453.005 410.398 460.094 409.99 460.832C409.754 461.26 408.955 461.658 408.453 460.832C407.95 460.006 408.387 453.193 408.849 452.455Z" fill="black"/>
<path d="M411.721 454.175C412.184 453.436 413.072 453.569 413.27 454.141C413.473 454.725 413.27 461.814 412.862 462.553C412.626 462.981 411.828 463.379 411.325 462.553C410.822 461.727 411.259 454.914 411.721 454.175Z" fill="black"/>
<path d="M494.222 357.115C496.196 354.295 500.047 350.629 504.939 350.629C511.707 350.629 507.759 377.139 507.759 377.139C507.759 377.139 505.909 376.874 504.939 376.575C510.015 357.679 494.222 366.986 494.222 357.115Z" fill="#FFE500"/>
<g filter="url(#filter0_d)">
<path d="M499.449 382.271C499.2 381.199 501.24 381.395 502.383 383.277C503.527 385.16 502.266 387.553 500.288 388.522C498.855 389.223 496.631 388.091 497.62 387.607C499.053 386.906 500.051 384.863 499.449 382.271Z" fill="#404040" fill-opacity="0.26"/>
</g>
<g filter="url(#filter1_d)">
<path d="M497.84 379.698C498.192 379.383 497.427 378.948 496.56 379.328C495.693 379.708 495.546 380.86 496.003 381.689C496.334 382.289 497.395 382.44 497.166 382.026C496.836 381.426 496.989 380.461 497.84 379.698Z" fill="#404040" fill-opacity="0.26"/>
</g>
<path d="M473.352 449.619C473.352 449.619 483.505 455.259 502.964 452.439C502.4 453.567 500.144 460.9 506.631 460.054C488.863 471.899 446.842 451.029 444.304 447.081C443.74 445.671 444.022 444.824 444.022 444.824C444.022 444.824 478.992 467.386 473.352 449.619Z" fill="#B1B1B1"/>
<path fill-rule="evenodd" clip-rule="evenodd" d="M677.722 481.168C692.45 481.168 704.39 469.229 704.39 454.5C704.39 439.772 692.45 427.832 677.722 427.832C662.994 427.832 651.054 439.772 651.054 454.5C651.054 469.229 662.994 481.168 677.722 481.168ZM677.722 479.24C691.385 479.24 702.462 468.164 702.462 454.5C702.462 440.837 691.385 429.76 677.722 429.76C664.058 429.76 652.981 440.837 652.981 454.5C652.981 468.164 664.058 479.24 677.722 479.24Z" fill="#C4C4C4"/>
<path d="M662.942 434.58L675.794 449.681" stroke="black"/>
<path d="M660.371 436.829L673.223 451.93" stroke="black"/>
<path d="M681.899 457.071L694.751 472.172" stroke="black"/>
<path d="M679.328 459.32L692.18 474.421" stroke="black"/>
<path d="M670.66 430.774L677.554 449.367" stroke="black"/>
<path d="M667.474 432.005L674.368 450.598" stroke="black"/>
<path d="M680.754 458.402L687.648 476.995" stroke="black"/>
<path d="M677.568 459.634L684.462 478.226" stroke="black"/>
<path d="M679.141 429.841L679.3 449.671" stroke="black"/>
<path d="M675.726 429.916L675.885 449.745" stroke="black"/>
<path d="M679.236 459.256L679.396 479.085" stroke="black"/>
<path d="M675.822 459.33L675.981 479.159" stroke="black"/>
<path d="M687.472 431.866L680.845 450.555" stroke="black"/>
<path d="M684.237 430.769L677.611 449.458" stroke="black"/>
<path d="M677.51 459.542L670.884 478.232" stroke="black"/>
<path d="M674.276 458.445L667.65 477.135" stroke="black"/>
<path d="M694.728 436.729L682.013 451.945" stroke="black"/>
<path d="M692.078 434.575L679.362 449.791" stroke="black"/>
<path d="M675.759 459.209L663.044 474.426" stroke="black"/>
<path d="M673.109 457.055L660.393 472.272" stroke="black"/>
<path d="M699.774 443.678L682.619 453.623" stroke="black"/>
<path d="M698.021 440.747L680.865 450.692" stroke="black"/>
<path d="M674.256 458.308L657.101 468.253" stroke="black"/>
<path d="M672.503 455.377L655.347 465.322" stroke="black"/>
<path d="M702.133 451.897L682.615 455.4" stroke="black"/>
<path d="M701.483 448.544L681.965 452.046" stroke="black"/>
<path d="M673.156 456.954L653.639 460.456" stroke="black"/>
<path d="M672.507 453.601L652.989 457.103" stroke="black"/>
<path d="M701.569 460.346L682.014 457.053" stroke="black"/>
<path d="M702.089 456.971L682.535 453.678" stroke="black"/>
<path d="M672.586 455.323L653.032 452.03" stroke="black"/>
<path d="M673.107 451.947L653.553 448.654" stroke="black"/>
<path d="M698.132 468.189L680.876 458.42" stroke="black"/>
<path d="M699.774 465.194L682.517 455.425" stroke="black"/>
<path d="M672.605 453.576L655.348 443.807" stroke="black"/>
<path d="M674.247 450.581L656.99 440.811" stroke="black"/>
<path d="M677.883 449.216C677.919 449.062 678.14 449.067 678.169 449.222C678.196 449.369 678.401 449.385 678.45 449.243C678.502 449.094 678.721 449.122 678.733 449.279C678.745 449.429 678.947 449.466 679.011 449.33C679.078 449.187 679.293 449.237 679.289 449.396C679.285 449.545 679.482 449.603 679.56 449.475C679.641 449.339 679.85 449.412 679.829 449.569C679.809 449.718 680 449.796 680.09 449.676C680.185 449.55 680.385 449.644 680.348 449.798C680.313 449.944 680.494 450.041 680.597 449.932C680.705 449.816 680.893 449.931 680.841 450.08C680.79 450.221 680.96 450.337 681.074 450.239C681.193 450.135 681.369 450.269 681.301 450.412C681.236 450.547 681.393 450.68 681.516 450.594C681.646 450.504 681.806 450.655 681.724 450.79C681.645 450.918 681.788 451.067 681.919 450.994C682.057 450.917 682.201 451.085 682.105 451.21C682.014 451.329 682.139 451.492 682.277 451.434C682.423 451.372 682.549 451.554 682.44 451.668C682.337 451.777 682.445 451.952 682.588 451.908C682.739 451.862 682.846 452.056 682.725 452.159C682.611 452.256 682.701 452.441 682.848 452.413C683.003 452.383 683.088 452.587 682.958 452.676C682.834 452.761 682.904 452.955 683.053 452.942C683.211 452.928 683.274 453.14 683.135 453.215C683.003 453.287 683.052 453.487 683.202 453.489C683.36 453.492 683.401 453.709 683.255 453.77C683.117 453.827 683.144 454.031 683.293 454.049C683.45 454.069 683.468 454.289 683.316 454.334C683.173 454.377 683.179 454.582 683.325 454.616C683.479 454.652 683.474 454.873 683.318 454.901C683.171 454.929 683.156 455.134 683.297 455.183C683.447 455.234 683.419 455.454 683.261 455.466C683.112 455.478 683.075 455.68 683.211 455.743C683.354 455.81 683.303 456.026 683.145 456.021C682.995 456.017 682.937 456.215 683.066 456.292C683.201 456.374 683.128 456.582 682.971 456.562C682.823 456.542 682.745 456.732 682.864 456.823C682.991 456.918 682.896 457.118 682.742 457.081C682.597 457.046 682.499 457.227 682.609 457.329C682.724 457.437 682.609 457.626 682.46 457.573C682.319 457.523 682.203 457.693 682.302 457.806C682.405 457.926 682.271 458.101 682.129 458.033C681.993 457.969 681.86 458.126 681.946 458.248C682.037 458.378 681.885 458.539 681.75 458.456C681.623 458.378 681.474 458.52 681.546 458.651C681.623 458.79 681.455 458.934 681.33 458.837C681.211 458.746 681.048 458.872 681.107 459.01C681.168 459.156 680.987 459.281 680.872 459.173C680.763 459.069 680.588 459.177 680.632 459.321C680.678 459.472 680.484 459.578 680.382 459.458C680.284 459.344 680.099 459.433 680.128 459.58C680.158 459.736 679.954 459.821 679.864 459.69C679.779 459.567 679.586 459.636 679.599 459.786C679.612 459.943 679.4 460.007 679.325 459.868C679.254 459.736 679.054 459.785 679.051 459.935C679.048 460.093 678.831 460.134 678.77 459.988C678.713 459.849 678.509 459.877 678.491 460.025C678.472 460.182 678.251 460.201 678.206 460.049C678.164 459.905 677.958 459.911 677.924 460.057C677.889 460.211 677.668 460.206 677.639 460.051C677.612 459.903 677.407 459.888 677.358 460.03C677.306 460.179 677.087 460.151 677.074 459.993C677.063 459.844 676.86 459.807 676.797 459.943C676.73 460.086 676.515 460.035 676.519 459.877C676.523 459.728 676.326 459.67 676.248 459.798C676.167 459.934 675.958 459.861 675.979 459.704C675.998 459.555 675.808 459.477 675.718 459.597C675.623 459.723 675.423 459.629 675.46 459.475C675.495 459.329 675.314 459.232 675.211 459.341C675.103 459.457 674.914 459.342 674.967 459.193C675.017 459.052 674.847 458.936 674.734 459.034C674.615 459.138 674.439 459.004 674.507 458.861C674.572 458.726 674.415 458.593 674.292 458.679C674.162 458.769 674.001 458.618 674.084 458.483C674.162 458.355 674.02 458.206 673.889 458.279C673.751 458.355 673.607 458.188 673.703 458.062C673.794 457.944 673.668 457.781 673.53 457.839C673.385 457.901 673.259 457.719 673.368 457.605C673.471 457.496 673.363 457.321 673.22 457.365C673.068 457.411 672.962 457.217 673.082 457.114C673.196 457.017 673.107 456.832 672.96 456.86C672.805 456.89 672.72 456.686 672.85 456.597C672.973 456.512 672.904 456.318 672.755 456.331C672.597 456.345 672.534 456.133 672.673 456.058C672.804 455.986 672.756 455.786 672.606 455.784C672.448 455.781 672.407 455.563 672.553 455.503C672.691 455.446 672.664 455.242 672.515 455.224C672.358 455.204 672.34 454.984 672.492 454.939C672.635 454.896 672.629 454.691 672.483 454.657C672.329 454.621 672.334 454.4 672.49 454.372C672.637 454.344 672.652 454.139 672.511 454.09C672.361 454.039 672.389 453.819 672.547 453.807C672.696 453.795 672.733 453.593 672.597 453.529C672.454 453.463 672.505 453.247 672.663 453.252C672.813 453.256 672.871 453.058 672.742 452.981C672.607 452.899 672.68 452.691 672.836 452.711C672.985 452.731 673.063 452.541 672.943 452.45C672.817 452.355 672.912 452.155 673.065 452.192C673.211 452.227 673.309 452.046 673.199 451.944C673.084 451.836 673.198 451.647 673.347 451.7C673.489 451.75 673.605 451.58 673.506 451.467C673.403 451.347 673.537 451.171 673.679 451.24C673.815 451.304 673.948 451.147 673.862 451.025C673.771 450.895 673.923 450.734 674.058 450.817C674.185 450.895 674.334 450.753 674.261 450.622C674.185 450.483 674.353 450.339 674.478 450.436C674.597 450.527 674.76 450.401 674.701 450.263C674.639 450.117 674.821 449.992 674.936 450.1C675.044 450.204 675.219 450.096 675.176 449.952C675.13 449.801 675.324 449.695 675.426 449.815C675.523 449.929 675.709 449.84 675.68 449.693C675.65 449.537 675.854 449.452 675.944 449.582C676.029 449.706 676.222 449.637 676.209 449.487C676.196 449.33 676.407 449.266 676.483 449.405C676.554 449.537 676.754 449.488 676.757 449.338C676.76 449.18 676.977 449.139 677.037 449.285C677.095 449.424 677.299 449.396 677.317 449.248C677.336 449.091 677.557 449.072 677.601 449.224C677.644 449.368 677.85 449.362 677.883 449.216Z" fill="black"/>
<path fill-rule="evenodd" clip-rule="evenodd" d="M677.722 485.988C695.112 485.988 709.209 471.89 709.209 454.5C709.209 437.11 695.112 423.013 677.722 423.013C660.332 423.013 646.234 437.11 646.234 454.5C646.234 471.89 660.332 485.988 677.722 485.988ZM677.722 481.168C692.45 481.168 704.39 469.229 704.39 454.5C704.39 439.772 692.45 427.832 677.722 427.832C662.994 427.832 651.054 439.772 651.054 454.5C651.054 469.229 662.994 481.168 677.722 481.168Z" fill="black"/>
<path fill-rule="evenodd" clip-rule="evenodd" d="M617.099 447.402C616.939 447.013 616.388 447.013 616.229 447.402C616.087 447.749 615.617 447.798 615.406 447.489C615.17 447.141 614.631 447.256 614.556 447.67C614.489 448.038 614.039 448.184 613.769 447.925C613.465 447.635 612.962 447.859 612.974 448.279C612.986 448.653 612.576 448.89 612.258 448.693C611.9 448.471 611.454 448.795 611.554 449.204C611.643 449.567 611.292 449.884 610.939 449.757C610.544 449.615 610.175 450.025 610.358 450.404C610.52 450.741 610.242 451.124 609.871 451.073C609.455 451.016 609.179 451.494 609.436 451.826C609.666 452.122 609.473 452.554 609.1 452.582C608.681 452.613 608.51 453.137 608.831 453.409C609.117 453.651 609.019 454.114 608.659 454.218C608.256 454.336 608.198 454.884 608.568 455.083C608.898 455.26 608.898 455.733 608.568 455.911C608.198 456.11 608.256 456.658 608.659 456.775C609.019 456.88 609.117 457.343 608.831 457.585C608.51 457.856 608.681 458.38 609.1 458.412C609.473 458.439 609.666 458.872 609.436 459.168C609.179 459.5 609.455 459.977 609.871 459.921C610.242 459.87 610.52 460.253 610.358 460.59C610.175 460.969 610.544 461.378 610.939 461.236C611.292 461.11 611.643 461.426 611.554 461.79C611.454 462.198 611.9 462.522 612.258 462.301C612.576 462.104 612.986 462.34 612.974 462.715C612.962 463.135 613.465 463.359 613.769 463.068C614.039 462.809 614.489 462.956 614.556 463.324C614.631 463.738 615.17 463.852 615.406 463.505C615.617 463.195 616.087 463.245 616.229 463.591C616.388 463.98 616.939 463.98 617.099 463.591C617.24 463.245 617.711 463.195 617.922 463.505C618.158 463.852 618.697 463.738 618.772 463.324C618.839 462.956 619.289 462.809 619.559 463.068C619.863 463.359 620.366 463.135 620.353 462.715C620.342 462.34 620.752 462.104 621.07 462.301C621.428 462.522 621.873 462.198 621.773 461.79C621.684 461.426 622.036 461.11 622.388 461.236C622.784 461.378 623.153 460.969 622.97 460.59C622.808 460.253 623.086 459.87 623.457 459.921C623.873 459.977 624.149 459.5 623.891 459.168C623.662 458.872 623.855 458.439 624.228 458.412C624.647 458.38 624.817 457.856 624.497 457.585C624.211 457.343 624.309 456.88 624.669 456.775C625.072 456.658 625.13 456.11 624.76 455.911C624.43 455.733 624.43 455.26 624.76 455.083C625.13 454.884 625.072 454.336 624.669 454.218C624.309 454.114 624.211 453.651 624.497 453.409C624.817 453.137 624.647 452.613 624.228 452.582C623.855 452.554 623.662 452.122 623.891 451.826C624.149 451.494 623.873 451.016 623.457 451.073C623.086 451.124 622.808 450.741 622.97 450.404C623.153 450.025 622.784 449.615 622.388 449.757C622.036 449.884 621.684 449.567 621.773 449.204C621.873 448.795 621.428 448.471 621.07 448.693C620.752 448.89 620.342 448.653 620.353 448.279C620.366 447.859 619.863 447.635 619.559 447.925C619.289 448.184 618.839 448.038 618.772 447.67C618.697 447.256 618.158 447.141 617.922 447.489C617.711 447.798 617.24 447.749 617.099 447.402ZM616.503 461.762C620.052 461.762 622.929 458.885 622.929 455.336C622.929 451.787 620.052 448.91 616.503 448.91C612.954 448.91 610.077 451.787 610.077 455.336C610.077 458.885 612.954 461.762 616.503 461.762Z" fill="black"/>
<path fill-rule="evenodd" clip-rule="evenodd" d="M616.948 450.223C616.877 449.929 616.459 449.929 616.388 450.223C616.324 450.487 615.965 450.524 615.848 450.28C615.717 450.006 615.308 450.093 615.3 450.396C615.292 450.667 614.948 450.779 614.783 450.564C614.599 450.324 614.216 450.494 614.271 450.792C614.321 451.058 614.007 451.239 613.801 451.063C613.571 450.867 613.232 451.113 613.348 451.393C613.451 451.643 613.183 451.885 612.944 451.756C612.678 451.612 612.398 451.923 612.569 452.172C612.723 452.396 612.51 452.688 612.25 452.612C611.96 452.526 611.751 452.888 611.97 453.097C612.167 453.284 612.02 453.614 611.749 453.593C611.447 453.569 611.318 453.967 611.576 454.126C611.807 454.268 611.732 454.621 611.463 454.657C611.163 454.697 611.119 455.113 611.404 455.214C611.66 455.305 611.66 455.666 611.404 455.757C611.119 455.858 611.163 456.275 611.463 456.314C611.732 456.35 611.807 456.704 611.576 456.845C611.318 457.004 611.447 457.402 611.749 457.378C612.02 457.357 612.167 457.688 611.97 457.874C611.751 458.083 611.96 458.445 612.25 458.36C612.51 458.283 612.723 458.575 612.569 458.799C612.398 459.048 612.678 459.359 612.944 459.215C613.183 459.086 613.451 459.328 613.348 459.579C613.232 459.858 613.571 460.104 613.801 459.908C614.007 459.732 614.321 459.913 614.271 460.179C614.216 460.477 614.599 460.647 614.783 460.407C614.948 460.192 615.292 460.304 615.3 460.575C615.308 460.878 615.717 460.965 615.848 460.692C615.965 460.447 616.324 460.485 616.388 460.748C616.459 461.043 616.877 461.043 616.948 460.748C617.011 460.485 617.371 460.447 617.488 460.692C617.618 460.965 618.028 460.878 618.036 460.575C618.043 460.304 618.387 460.192 618.552 460.407C618.737 460.647 619.119 460.477 619.064 460.179C619.015 459.913 619.328 459.732 619.535 459.908C619.765 460.104 620.103 459.858 619.988 459.579C619.884 459.328 620.153 459.086 620.391 459.215C620.657 459.359 620.937 459.048 620.766 458.799C620.613 458.575 620.825 458.283 621.085 458.36C621.376 458.445 621.585 458.083 621.366 457.874C621.169 457.688 621.316 457.357 621.586 457.378C621.888 457.402 622.018 457.004 621.76 456.845C621.528 456.704 621.604 456.35 621.872 456.314C622.173 456.275 622.216 455.858 621.931 455.757C621.675 455.666 621.675 455.305 621.931 455.214C622.216 455.113 622.173 454.697 621.872 454.657C621.604 454.621 621.528 454.268 621.76 454.126C622.018 453.967 621.888 453.569 621.586 453.593C621.316 453.614 621.169 453.284 621.366 453.097C621.585 452.888 621.376 452.526 621.085 452.612C620.825 452.688 620.613 452.396 620.766 452.172C620.937 451.923 620.657 451.612 620.391 451.756C620.153 451.885 619.884 451.643 619.988 451.393C620.103 451.113 619.765 450.867 619.535 451.063C619.328 451.239 619.015 451.058 619.064 450.792C619.119 450.494 618.737 450.324 618.552 450.564C618.387 450.779 618.043 450.667 618.036 450.396C618.028 450.093 617.618 450.006 617.488 450.28C617.371 450.524 617.011 450.487 616.948 450.223ZM616.542 459.984C619.115 459.984 621.201 457.898 621.201 455.325C621.201 452.752 619.115 450.666 616.542 450.666C613.969 450.666 611.884 452.752 611.884 455.325C611.884 457.898 613.969 459.984 616.542 459.984Z" fill="black"/>
<path d="M606.393 441.97H603.662L603.501 440.363L607.518 440.684L611.534 440.524V442.291L608.964 442.13L618.121 454.34L626.474 468.798L629.687 468.477V470.244L625.832 470.083L621.655 470.887L621.494 468.798H623.422L613.944 455.786L606.393 441.97Z" fill="black"/>
<path fill-rule="evenodd" clip-rule="evenodd" d="M576.833 481.168C591.562 481.168 603.501 469.229 603.501 454.5C603.501 439.772 591.562 427.832 576.833 427.832C562.105 427.832 550.165 439.772 550.165 454.5C550.165 469.229 562.105 481.168 576.833 481.168ZM576.833 479.24C590.497 479.24 601.574 468.164 601.574 454.5C601.574 440.837 590.497 429.76 576.833 429.76C563.17 429.76 552.093 440.837 552.093 454.5C552.093 468.164 563.17 479.24 576.833 479.24Z" fill="#C4C4C4"/>
<path d="M562.054 434.58L574.906 449.681" stroke="black"/>
<path d="M559.483 436.829L572.335 451.93" stroke="black"/>
<path d="M581.01 457.071L593.863 472.172" stroke="black"/>
<path d="M578.44 459.32L591.292 474.421" stroke="black"/>
<path d="M569.772 430.774L576.666 449.367" stroke="black"/>
<path d="M566.586 432.005L573.48 450.598" stroke="black"/>
<path d="M579.866 458.402L586.76 476.995" stroke="black"/>
<path d="M576.68 459.634L583.574 478.226" stroke="black"/>
<path d="M578.253 429.841L578.412 449.671" stroke="black"/>
<path d="M574.838 429.916L574.997 449.745" stroke="black"/>
<path d="M578.349 459.256L578.508 479.085" stroke="black"/>
<path d="M574.934 459.33L575.093 479.159" stroke="black"/>
<path d="M586.584 431.866L579.958 450.555" stroke="black"/>
<path d="M583.349 430.769L576.723 449.458" stroke="black"/>
<path d="M576.623 459.542L569.996 478.232" stroke="black"/>
<path d="M573.388 458.445L566.762 477.135" stroke="black"/>
<path d="M593.84 436.729L581.125 451.945" stroke="black"/>
<path d="M591.189 434.575L578.474 449.791" stroke="black"/>
<path d="M574.871 459.209L562.156 474.426" stroke="black"/>
<path d="M572.22 457.055L559.505 472.272" stroke="black"/>
<path d="M598.886 443.678L581.73 453.623" stroke="black"/>
<path d="M597.133 440.747L579.977 450.692" stroke="black"/>
<path d="M573.368 458.308L556.212 468.253" stroke="black"/>
<path d="M571.615 455.377L554.459 465.322" stroke="black"/>
<path d="M601.245 451.897L581.727 455.4" stroke="black"/>
<path d="M600.595 448.544L581.077 452.046" stroke="black"/>
<path d="M572.268 456.954L552.75 460.457" stroke="black"/>
<path d="M571.619 453.601L552.101 457.103" stroke="black"/>
<path d="M600.68 460.346L581.126 457.053" stroke="black"/>
<path d="M601.201 456.971L581.647 453.678" stroke="black"/>
<path d="M571.698 455.323L552.144 452.03" stroke="black"/>
<path d="M572.219 451.947L552.665 448.654" stroke="black"/>
<path d="M597.244 468.189L579.988 458.42" stroke="black"/>
<path d="M598.885 465.194L581.629 455.425" stroke="black"/>
<path d="M571.716 453.576L554.46 443.806" stroke="black"/>
<path d="M573.358 450.581L556.102 440.811" stroke="black"/>
<path d="M576.995 449.216C577.031 449.062 577.252 449.067 577.28 449.222C577.308 449.369 577.513 449.385 577.562 449.243C577.613 449.094 577.833 449.122 577.845 449.279C577.857 449.429 578.059 449.466 578.122 449.33C578.189 449.187 578.405 449.237 578.4 449.396C578.396 449.545 578.594 449.603 578.671 449.475C578.753 449.339 578.961 449.412 578.941 449.569C578.921 449.718 579.111 449.796 579.202 449.676C579.297 449.55 579.497 449.644 579.46 449.798C579.425 449.944 579.606 450.041 579.708 449.932C579.816 449.816 580.005 449.931 579.952 450.08C579.902 450.221 580.072 450.337 580.185 450.239C580.305 450.135 580.481 450.269 580.412 450.412C580.348 450.547 580.505 450.68 580.627 450.594C580.757 450.504 580.918 450.655 580.835 450.79C580.757 450.918 580.899 451.067 581.03 450.994C581.169 450.917 581.313 451.085 581.216 451.21C581.125 451.329 581.251 451.492 581.389 451.434C581.535 451.372 581.66 451.554 581.552 451.668C581.448 451.777 581.556 451.952 581.7 451.908C581.851 451.862 581.957 452.056 581.837 452.159C581.723 452.256 581.812 452.441 581.959 452.413C582.115 452.383 582.2 452.587 582.07 452.676C581.946 452.761 582.015 452.955 582.165 452.942C582.322 452.928 582.386 453.14 582.247 453.215C582.115 453.287 582.164 453.487 582.314 453.489C582.472 453.492 582.513 453.709 582.367 453.77C582.228 453.827 582.256 454.031 582.404 454.049C582.561 454.069 582.58 454.289 582.428 454.334C582.284 454.377 582.29 454.582 582.436 454.616C582.59 454.652 582.585 454.873 582.43 454.901C582.283 454.929 582.267 455.134 582.409 455.183C582.558 455.234 582.53 455.454 582.373 455.466C582.223 455.478 582.186 455.68 582.322 455.743C582.465 455.81 582.415 456.026 582.256 456.021C582.107 456.017 582.049 456.215 582.177 456.292C582.313 456.374 582.24 456.582 582.083 456.562C581.934 456.542 581.856 456.732 581.976 456.823C582.102 456.918 582.008 457.118 581.854 457.081C581.708 457.046 581.611 457.227 581.72 457.329C581.836 457.437 581.721 457.626 581.572 457.573C581.431 457.523 581.315 457.693 581.413 457.806C581.517 457.926 581.383 458.101 581.24 458.033C581.105 457.969 580.972 458.126 581.058 458.248C581.148 458.378 580.997 458.539 580.862 458.456C580.734 458.378 580.585 458.52 580.658 458.651C580.735 458.79 580.567 458.934 580.442 458.837C580.323 458.746 580.16 458.872 580.218 459.01C580.28 459.156 580.098 459.281 579.984 459.173C579.875 459.069 579.7 459.177 579.744 459.321C579.79 459.472 579.596 459.578 579.493 459.458C579.396 459.344 579.211 459.433 579.239 459.58C579.269 459.736 579.065 459.821 578.976 459.69C578.891 459.567 578.697 459.636 578.71 459.786C578.724 459.943 578.512 460.007 578.437 459.868C578.365 459.736 578.165 459.785 578.163 459.935C578.16 460.093 577.942 460.134 577.882 459.988C577.825 459.849 577.621 459.877 577.603 460.025C577.583 460.182 577.363 460.201 577.318 460.049C577.275 459.905 577.07 459.911 577.036 460.057C577 460.211 576.779 460.206 576.751 460.051C576.723 459.903 576.518 459.888 576.469 460.03C576.418 460.179 576.198 460.151 576.186 459.993C576.174 459.844 575.972 459.807 575.909 459.943C575.842 460.086 575.626 460.035 575.631 459.877C575.635 459.728 575.437 459.67 575.36 459.798C575.278 459.934 575.07 459.861 575.09 459.704C575.11 459.555 574.92 459.477 574.829 459.597C574.734 459.723 574.534 459.629 574.571 459.475C574.606 459.329 574.425 459.232 574.323 459.341C574.215 459.457 574.026 459.342 574.079 459.193C574.129 459.052 573.959 458.936 573.846 459.034C573.726 459.138 573.551 459.004 573.619 458.861C573.683 458.726 573.526 458.593 573.404 458.679C573.274 458.769 573.113 458.618 573.196 458.483C573.274 458.355 573.132 458.206 573.001 458.279C572.862 458.355 572.718 458.188 572.815 458.062C572.906 457.944 572.78 457.781 572.642 457.839C572.496 457.901 572.371 457.719 572.479 457.605C572.583 457.496 572.475 457.321 572.331 457.365C572.18 457.411 572.074 457.217 572.194 457.114C572.308 457.017 572.219 456.832 572.072 456.86C571.916 456.89 571.831 456.686 571.961 456.597C572.085 456.512 572.016 456.318 571.866 456.331C571.709 456.345 571.645 456.133 571.784 456.058C571.916 455.986 571.867 455.786 571.717 455.784C571.559 455.781 571.518 455.563 571.664 455.503C571.803 455.446 571.775 455.242 571.627 455.224C571.47 455.204 571.451 454.984 571.603 454.939C571.747 454.896 571.741 454.691 571.595 454.657C571.441 454.621 571.446 454.4 571.601 454.372C571.749 454.344 571.764 454.139 571.622 454.09C571.473 454.039 571.501 453.819 571.659 453.807C571.808 453.795 571.845 453.593 571.709 453.529C571.566 453.463 571.616 453.247 571.775 453.252C571.924 453.256 571.982 453.058 571.854 452.981C571.718 452.899 571.791 452.691 571.948 452.711C572.097 452.731 572.175 452.541 572.055 452.45C571.929 452.355 572.023 452.155 572.177 452.192C572.323 452.227 572.42 452.046 572.311 451.944C572.195 451.836 572.31 451.647 572.459 451.7C572.6 451.75 572.716 451.58 572.618 451.467C572.514 451.347 572.648 451.171 572.791 451.24C572.926 451.304 573.059 451.147 572.973 451.025C572.883 450.895 573.034 450.734 573.169 450.817C573.297 450.895 573.446 450.753 573.373 450.622C573.297 450.483 573.464 450.339 573.59 450.436C573.708 450.527 573.871 450.401 573.813 450.263C573.751 450.117 573.933 449.992 574.047 450.1C574.156 450.204 574.331 450.096 574.287 449.952C574.241 449.801 574.435 449.695 574.538 449.815C574.635 449.929 574.82 449.84 574.792 449.693C574.762 449.537 574.966 449.452 575.055 449.582C575.14 449.706 575.334 449.637 575.321 449.487C575.307 449.33 575.519 449.266 575.594 449.405C575.666 449.537 575.866 449.488 575.868 449.338C575.871 449.18 576.089 449.139 576.149 449.285C576.206 449.424 576.41 449.396 576.428 449.248C576.448 449.091 576.668 449.072 576.713 449.224C576.756 449.368 576.961 449.362 576.995 449.216Z" fill="black"/>
<path fill-rule="evenodd" clip-rule="evenodd" d="M576.833 485.988C594.223 485.988 608.321 471.89 608.321 454.5C608.321 437.11 594.223 423.013 576.833 423.013C559.443 423.013 545.346 437.11 545.346 454.5C545.346 471.89 559.443 485.988 576.833 485.988ZM576.833 481.168C591.562 481.168 603.501 469.229 603.501 454.5C603.501 439.772 591.562 427.832 576.833 427.832C562.105 427.832 550.165 439.772 550.165 454.5C550.165 469.229 562.105 481.168 576.833 481.168Z" fill="black"/>
<path fill-rule="evenodd" clip-rule="evenodd" d="M576.633 455.732C576.633 455.732 574.705 455.411 575.991 453.483L603.14 417.176L602.658 415.57L601.854 415.57L601.533 414.284L602.015 414.124L598.802 403.2L598.802 402.718C598.802 402.718 596.824 402.853 596.231 402.557C595.91 402.396 595.75 401.593 595.75 401.593C595.75 401.593 593.982 401.754 592.697 401.432C591.751 401.196 590.93 399.665 590.93 399.665C590.93 399.665 587.385 399.412 586.914 397.737C586.554 396.458 587.105 395.471 588.038 394.524C589.459 393.759 591.261 394.582 592.768 395.269C593.476 395.593 594.118 395.886 594.625 395.97C596.072 396.211 598.787 396.181 601.478 396.151C602.372 396.141 603.262 396.131 604.103 396.131C607.405 396.131 611.654 397.095 612.296 398.219C612.296 399.023 611.815 399.344 610.851 399.826C608.923 400.147 605.067 399.344 605.067 399.344C605.067 399.344 602.497 400.308 599.927 400.629C601.372 401.111 601.372 402.236 601.372 402.236L601.694 402.236L605.067 412.999L605.71 412.839L606.031 414.284L605.549 414.445L606.031 415.73L653.905 404.806L653.263 403.521L653.745 403.199L652.781 400.147C652.781 400.147 651.772 400.129 651.656 399.665C651.334 398.38 652.138 398.38 652.138 398.38L651.816 397.095C651.816 397.095 650.772 397.255 650.531 396.452C650.001 394.685 653.744 394.042 653.744 394.042L654.226 394.042L655.03 396.452L659.207 392.597C659.207 392.597 659.28 390.311 659.849 390.026C660.418 389.742 660.813 389.866 660.813 389.866L660.01 388.58C660.01 388.58 658.403 387.134 659.528 386.171C660.652 385.207 661.617 386.171 661.617 386.171L662.741 387.938C662.741 387.938 664.348 387.556 664.83 387.616C665.472 387.697 668.043 390.347 668.043 390.347C668.043 390.347 669.525 390.265 669.649 390.669C669.773 391.072 669.167 391.472 669.167 391.472L667.4 391.472L665.311 390.187L663.866 390.026L664.348 390.508C664.348 390.508 665.07 390.669 665.151 390.829C665.594 391.716 664.99 393.641 664.508 393.882C664.187 394.042 662.098 393.721 662.098 393.721L656.315 399.986L657.279 401.914L657.922 401.914L662.58 414.927C664.347 414.445 665.151 417.979 665.151 417.979L664.83 418.301L676.718 450.591L678.324 452.358C678.324 452.358 681.055 453.644 679.449 455.571C677.842 457.499 674.95 454.768 674.95 454.768L662.098 419.425L661.617 419.425L660.492 416.694L658.885 417.176L658.725 416.855L658.243 417.015L656.154 411.553C656.154 411.553 619.044 456.857 617.919 457.821C616.313 458.302 576.633 455.732 576.633 455.732ZM654.869 407.537L606.995 418.622L617.759 453.001L654.869 408.019V407.537ZM604.264 421.192L614.706 454.929L580.488 453.001L604.264 421.192ZM596.232 400.147C596.232 399.987 592.376 399.505 592.537 399.826C592.673 400.099 592.823 400.146 593.136 400.243C593.197 400.262 593.265 400.283 593.34 400.308C593.822 400.468 595.589 400.468 595.75 400.468C595.976 400.468 596.232 400.373 596.232 400.147ZM651.495 396.292C651.495 396.469 651.351 396.613 651.174 396.613C650.996 396.613 650.853 396.469 650.853 396.292C650.853 396.114 650.996 395.97 651.174 395.97C651.351 395.97 651.495 396.114 651.495 396.292ZM652.138 399.505C652.315 399.505 652.459 399.361 652.459 399.183C652.459 399.006 652.315 398.862 652.138 398.862C651.96 398.862 651.817 399.006 651.817 399.183C651.817 399.361 651.96 399.505 652.138 399.505Z" fill="black"/>
<path d="M638.618 375.229C638.293 374.365 637.07 374.365 636.745 375.229L634.156 382.124C634.058 382.383 633.858 382.59 633.602 382.696L626.908 385.469C626.084 385.809 626.084 386.975 626.908 387.316L633.602 390.089C633.858 390.195 634.058 390.402 634.156 390.661L636.745 397.555C637.07 398.42 638.293 398.42 638.618 397.555L641.207 390.661C641.305 390.402 641.505 390.195 641.761 390.089L648.455 387.316C649.279 386.975 649.279 385.809 648.455 385.469L641.761 382.696C641.505 382.59 641.305 382.383 641.207 382.124L638.618 375.229Z" fill="#93AAFF"/>
<path d="M574.893 410.343C574.568 409.479 573.345 409.479 573.021 410.343L570.431 417.237C570.334 417.497 570.133 417.704 569.878 417.81L563.183 420.582C562.36 420.923 562.36 422.089 563.183 422.43L569.878 425.202C570.133 425.308 570.334 425.515 570.431 425.775L573.021 432.669C573.345 433.533 574.568 433.533 574.893 432.669L577.483 425.775C577.58 425.515 577.78 425.308 578.036 425.202L584.731 422.43C585.554 422.089 585.554 420.923 584.731 420.582L578.036 417.81C577.78 417.704 577.58 417.497 577.483 417.237L574.893 410.343Z" fill="#93AAFF"/>
<path d="M492.961 346.619C492.637 345.754 491.414 345.754 491.089 346.619L488.499 353.513C488.402 353.772 488.202 353.979 487.946 354.085L481.251 356.858C480.428 357.198 480.428 358.364 481.251 358.705L487.946 361.478C488.202 361.584 488.402 361.791 488.499 362.05L491.089 368.944C491.414 369.809 492.637 369.809 492.961 368.944L495.551 362.05C495.648 361.791 495.849 361.584 496.105 361.478L502.799 358.705C503.622 358.364 503.622 357.198 502.799 356.858L496.105 354.085C495.849 353.979 495.648 353.772 495.551 353.513L492.961 346.619Z" fill="#93AAFF"/>
<path d="M408.429 393.437C408.104 392.572 406.881 392.572 406.557 393.437L403.967 400.331C403.87 400.59 403.669 400.797 403.413 400.903L396.719 403.676C395.896 404.016 395.896 405.182 396.719 405.523L403.413 408.296C403.669 408.402 403.87 408.609 403.967 408.868L406.557 415.762C406.881 416.627 408.104 416.627 408.429 415.762L411.019 408.868C411.116 408.609 411.316 408.402 411.572 408.296L418.267 405.523C419.09 405.182 419.09 404.016 418.267 403.676L411.572 400.903C411.316 400.797 411.116 400.59 411.019 400.331L408.429 393.437Z" fill="#93AAFF"/>
<path d="M317.394 388.234C317.069 387.37 315.846 387.37 315.522 388.234L312.932 395.129C312.835 395.388 312.634 395.595 312.379 395.701L305.684 398.474C304.861 398.814 304.861 399.98 305.684 400.321L312.379 403.094C312.634 403.2 312.835 403.407 312.932 403.666L315.522 410.56C315.846 411.425 317.069 411.425 317.394 410.56L319.984 403.666C320.081 403.407 320.281 403.2 320.537 403.094L327.232 400.321C328.055 399.98 328.055 398.814 327.232 398.474L320.537 395.701C320.281 395.595 320.081 395.388 319.984 395.129L317.394 388.234Z" fill="#93AAFF"/>
<path d="M173.038 354.421C172.714 353.557 171.491 353.557 171.166 354.421L168.576 361.316C168.479 361.575 168.279 361.782 168.023 361.888L161.328 364.661C160.505 365.001 160.505 366.167 161.328 366.508L168.023 369.281C168.279 369.387 168.479 369.594 168.576 369.853L171.166 376.747C171.491 377.612 172.714 377.612 173.038 376.747L175.628 369.853C175.725 369.594 175.926 369.387 176.181 369.281L182.876 366.508C183.699 366.167 183.699 365.001 182.876 364.661L176.181 361.888C175.926 361.782 175.725 361.575 175.628 361.316L173.038 354.421Z" fill="#93AAFF"/>
<path d="M93.7077 397.338C93.383 396.474 92.1602 396.474 91.8355 397.338L89.2458 404.232C89.1485 404.492 88.9481 404.699 88.6923 404.805L81.9977 407.577C81.1745 407.918 81.1745 409.084 81.9977 409.425L88.6923 412.197C88.9481 412.303 89.1485 412.51 89.2458 412.77L91.8355 419.664C92.1602 420.528 93.383 420.528 93.7077 419.664L96.2974 412.77C96.3947 412.51 96.5951 412.303 96.8509 412.197L103.546 409.425C104.369 409.084 104.369 407.918 103.546 407.577L96.8509 404.805C96.5951 404.699 96.3947 404.492 96.2974 404.232L93.7077 397.338Z" fill="#93AAFF"/>
<path d="M339.502 324.51C339.178 323.645 337.955 323.645 337.63 324.51L335.041 331.404C334.943 331.663 334.743 331.871 334.487 331.977L327.792 334.749C326.969 335.09 326.969 336.256 327.792 336.597L334.487 339.369C334.743 339.475 334.943 339.682 335.041 339.941L337.63 346.836C337.955 347.7 339.178 347.7 339.502 346.836L342.092 339.941C342.189 339.682 342.39 339.475 342.646 339.369L349.34 336.597C350.163 336.256 350.163 335.09 349.34 334.749L342.646 331.977C342.39 331.871 342.189 331.663 342.092 331.404L339.502 324.51Z" fill="#93AAFF"/>
<path d="M454.311 230.443C450.073 228.013 441.956 228.492 441.956 228.492C441.956 228.492 431.435 221.564 423.749 220.689C413.213 219.488 397.739 228.492 397.739 228.492C397.739 228.492 382.844 224.174 373.355 225.566C362.957 227.09 348.97 236.945 348.97 236.945H460.813C460.813 236.945 457.426 232.229 454.311 230.443Z" fill="#FAFCFE" fill-opacity="0.51"/>
<path d="M348.97 259.814C340.517 256.453 333.364 259.814 333.364 259.814C333.364 259.814 318.991 251.901 311.256 251.901C300.852 251.901 292.398 257.863 292.398 257.863C292.398 257.863 288.883 253.761 279.393 255.152C268.996 256.676 266.388 266.317 266.388 266.317H355.473C355.473 266.317 352.307 261.141 348.97 259.814Z" fill="#FAFCFE" fill-opacity="0.51"/>
<path d="M231.275 230.553C228.024 228.602 218.92 230.553 218.92 230.553C218.92 230.553 218.853 222.64 211.117 222.64C200.713 222.639 192.26 228.602 192.26 228.602C192.26 228.602 188.745 224.5 179.255 225.891C168.858 227.415 166.25 237.055 166.25 237.055H233.226C233.226 237.055 234.354 232.4 231.275 230.553Z" fill="#FAFCFE" fill-opacity="0.51"/>
<path d="M771.633 485.23H5.63804" stroke="black" stroke-width="2"/>
<defs>
<filter id="filter0_d" x="493.245" y="379.383" width="14.4589" height="16.2659" filterUnits="userSpaceOnUse" color-interpolation-filters="sRGB">
<feFlood flood-opacity="0" result="BackgroundImageFix"/>
<feColorMatrix in="SourceAlpha" type="matrix" values="0 0 0 0 0 0 0 0 0 0 0 0 0 0 0 0 0 0 127 0"/>
<feOffset dy="2"/>
<feGaussianBlur stdDeviation="2"/>
<feColorMatrix type="matrix" values="0 0 0 0 0 0 0 0 0 0 0 0 0 0 0 0 0 0 0.69 0"/>
<feBlend mode="normal" in2="BackgroundImageFix" result="effect1_dropShadow"/>
<feBlend mode="normal" in="SourceGraphic" in2="effect1_dropShadow" result="shape"/>
</filter>
<filter id="filter1_d" x="491.35" y="376.831" width="10.6578" height="11.51" filterUnits="userSpaceOnUse" color-interpolation-filters="sRGB">
<feFlood flood-opacity="0" result="BackgroundImageFix"/>
<feColorMatrix in="SourceAlpha" type="matrix" values="0 0 0 0 0 0 0 0 0 0 0 0 0 0 0 0 0 0 127 0"/>
<feOffset dy="2"/>
<feGaussianBlur stdDeviation="2"/>
<feColorMatrix type="matrix" values="0 0 0 0 0 0 0 0 0 0 0 0 0 0 0 0 0 0 0.69 0"/>
<feBlend mode="normal" in2="BackgroundImageFix" result="effect1_dropShadow"/>
<feBlend mode="normal" in="SourceGraphic" in2="effect1_dropShadow" result="shape"/>
</filter>
</defs>
</svg>
