<svg width="869" height="764" viewBox="0 0 869 764" fill="none" xmlns="http://www.w3.org/2000/svg">
<g clip-path="url(#clip0)">
<path d="M143.173 163.5C143.173 163.5 179.673 14 333.173 14C529.173 14 550.673 163.5 550.673 163.5C550.673 163.5 625.673 40.5 724.173 40.5C811.173 40.5 871.173 117.5 871.173 117.5V671.845C871.173 671.845 750.673 750.5 631.673 750.5C439.573 750.5 343.173 692 343.173 692C343.173 692 250.173 795 123.173 692C14.1734 603.599 109.173 464 109.173 464C109.173 464 9.29141 448 14.1733 296.5C18.4591 163.5 143.173 163.5 143.173 163.5Z" fill="#FFE5E6"/>
<rect x="174.531" y="448.208" width="1124.4" height="152.31" fill="black"/>
<path d="M492.59 376.246C492.59 376.246 597.862 309.049 698.656 279.932C779.29 264.252 1003.27 282.172 1003.27 282.172C1082.74 301.965 1195.9 365.046 1195.9 365.046L1323.57 378.485L1330.29 412.083H1319.09V430.002H1330.29V450.16C1341.49 461.359 1339.25 490.477 1332.53 499.437V537.515L1319.09 555.433V573.352L1298.93 595.75H1195.9C1195.9 595.75 1202.62 470.319 1090.63 477.039C978.637 483.758 996.555 609.19 996.555 609.19L443.313 618.149C443.313 618.149 463.472 488.238 349.239 488.238C235.007 488.238 252.926 618.149 252.926 618.149H185.73L143.173 595.75V573.352H156.612V537.515H143.173V503.917L163.332 459.12C163.332 459.12 172.291 436.721 219.328 421.042C266.365 405.364 492.59 376.246 492.59 376.246Z" fill="#FF2929"/>
<path d="M447.793 591.27C660.578 573.352 992.076 580.071 992.076 580.071" stroke="black"/>
<path d="M185.731 461.359C214.849 454.64 273.085 454.64 273.085 454.64L237.247 497.197H156.613C156.613 497.197 167.812 474.798 185.731 461.359Z" fill="white"/>
<path d="M185.73 463.599C194.69 461.359 201.409 463.599 201.409 463.599L187.97 494.957L158.852 494.957C158.852 494.957 172.291 474.798 185.73 463.599Z" fill="#E6E6E6"/>
<path d="M802.381 298.248C802.825 298.274 803.173 298.297 803.422 298.314L798.958 579.583L508.734 586.28C508.719 586.062 508.699 585.769 508.674 585.404C508.615 584.516 508.532 583.202 508.436 581.5C508.244 578.096 507.999 573.138 507.789 566.93C507.37 554.514 507.09 537.096 507.649 517.09C508.767 477.12 513.235 426.86 526.611 385.522C599.288 336.359 668.599 314.565 719.747 305.062C745.337 300.307 766.381 298.63 781.023 298.14C788.344 297.896 794.064 297.948 797.952 298.062C799.896 298.118 801.382 298.19 802.381 298.248Z" stroke="black"/>
<path d="M966.98 579.571H795.476L799.136 298.35H949.513C998.659 299.469 1038.88 319.016 1066.83 338.299C1080.8 347.94 1091.7 357.511 1099.1 364.67C1102.8 368.25 1105.63 371.226 1107.53 373.306C1108.48 374.345 1109.2 375.161 1109.68 375.716C1109.92 375.994 1110.1 376.206 1110.22 376.349C1110.25 376.377 1110.27 376.403 1110.29 376.426V458.628C1043.23 459.89 1007.37 490.15 988.294 520.167C978.74 535.2 973.403 550.16 970.454 561.36C968.979 566.961 968.1 571.624 967.591 574.889C967.336 576.521 967.173 577.804 967.074 578.681C967.032 579.052 967.001 579.35 966.98 579.571Z" stroke="black"/>
<path d="M787.749 384.704L527.488 384.704C577.658 339.678 642.575 318.076 695.112 307.738C721.545 302.538 744.831 300.19 761.508 299.144C769.846 298.62 776.531 298.422 781.13 298.354C783.43 298.321 785.208 298.32 786.411 298.327C786.995 298.331 787.443 298.336 787.749 298.341V384.704Z" fill="#D1FCFF" stroke="black"/>
<path d="M1016.21 380.224H815.628V298.35H973.041C986.973 299.468 997.839 302.256 1005.22 304.763C1008.91 306.017 1011.73 307.201 1013.62 308.069C1014.56 308.503 1015.28 308.858 1015.76 309.104C1015.95 309.203 1016.1 309.284 1016.21 309.345V380.224Z" fill="#D1FCFF" stroke="black"/>
<path d="M163.332 577.831C172.291 577.831 194.69 577.831 194.69 577.831L187.97 591.27L156.613 591.27C156.613 591.27 156.613 584.551 163.332 577.831Z" fill="black" fill-opacity="0.54"/>
<path d="M152.132 537.514C153.186 537.514 156.611 537.514 156.611 537.514V573.352H152.132C152.132 573.352 151.342 555.433 152.132 537.514Z" fill="#C60000"/>
<path d="M562.026 369.526C604.58 354.601 615.782 362.806 629.221 367.286C634.462 378.354 634.262 387.483 629.221 398.644C613.542 407.603 593.383 407.603 559.786 398.644C556.067 387.862 554.731 381.03 562.026 369.526Z" fill="#F30D0D"/>
<path d="M562.025 371.765C604.579 356.841 613.541 365.046 626.98 369.526C631.461 371.765 630.215 392.949 630.215 392.949C614.536 401.909 594.378 404.149 560.78 395.189C555.305 385.204 562.025 371.765 562.025 371.765Z" fill="#FF2929"/>
<path d="M712.244 441.551C749.717 437.034 759.581 439.517 771.415 440.873C776.03 444.224 775.853 446.987 771.415 450.366C757.608 453.078 739.857 453.078 710.272 450.366C706.997 447.102 705.82 445.034 712.244 441.551Z" fill="black" fill-opacity="0.26"/>
<circle cx="349.239" cy="577.831" r="89.5939" fill="#2E3A63"/>
<circle cx="349.239" cy="577.831" r="62.2157" fill="#2E3A63" stroke="#B1D0FC"/>
<circle cx="349.239" cy="577.831" r="22.3985" fill="#B1D0FC"/>
<path d="M340.056 517.355H357.975L353.495 562.152H344.536L340.056 517.355Z" fill="#B1D0FC"/>
<path d="M395.822 537.514L404.308 553.296L364.563 569.581L360.32 561.69L395.822 537.514Z" fill="#B1D0FC"/>
<path d="M303.969 537.514L295.483 553.296L335.228 569.581L339.471 561.69L303.969 537.514Z" fill="#B1D0FC"/>
<path d="M298.134 611.326L290.078 595.32L329.994 580.244L334.023 588.247L298.134 611.326Z" fill="#B1D0FC"/>
<path d="M400.581 608.435L408.637 592.429L368.72 577.353L364.692 585.356L400.581 608.435Z" fill="#B1D0FC"/>
<path d="M340.28 636.067H358.199L353.719 591.27H344.76L340.28 636.067Z" fill="#B1D0FC"/>
<path fill-rule="evenodd" clip-rule="evenodd" d="M338.846 180.975C332.126 173.438 327.505 164.146 328.068 153.648C329.689 123.399 372.389 129.401 380.937 144.526C389.486 159.651 389.174 198.35 378.516 201.238C374.265 202.39 365.124 199.865 355.771 194.494L362.287 235.007L327.981 235.527L338.846 180.975Z" fill="#D4A181"/>
<path fill-rule="evenodd" clip-rule="evenodd" d="M350.694 178.683C346.576 186.815 340.795 192.98 334.915 193.07C323.747 193.242 315.554 178.62 315.283 162.767C315.273 162.21 315.275 161.656 315.288 161.107C303.611 169.294 294.776 185.215 279.144 185.455C257.877 185.783 248.707 143.554 278.419 143.097C298.626 142.785 308.616 145.542 317.256 149.712C318.865 144.982 321.373 140.988 324.476 138.178C325.22 137.324 326.368 136.5 327.854 135.73C328.762 135.221 329.703 134.803 330.673 134.484C335.807 132.53 343.267 131.093 351.62 130.676C353.18 130.598 354.713 130.558 356.208 130.555C356.1 122.777 362.384 116.381 370.266 116.26C378.163 116.138 384.673 122.361 384.806 130.159C384.935 137.701 379.053 143.953 371.523 144.467C367.235 145.847 361.712 146.897 355.576 147.398C356.21 149.604 356.577 152.115 356.626 154.958C356.669 157.469 356.434 160.136 355.963 162.848C354.604 161.304 352.805 160.311 350.997 160.339C345.939 160.417 342.488 164.58 342.563 168.943C342.657 174.48 345.963 178.436 350.694 178.683Z" fill="#191847"/>
<path fill-rule="evenodd" clip-rule="evenodd" d="M304.928 356.228L357.305 534.492L381.941 668.336H406.667L381.985 356.228H304.928Z" fill="#BA8B72"/>
<path fill-rule="evenodd" clip-rule="evenodd" d="M281.389 356.228C285.044 448.835 283.603 499.346 282.785 507.759C281.967 516.173 277.323 572.523 245.68 671.16H271.398C313.304 576.535 327.933 520.185 332.739 507.759C337.546 495.334 351.741 444.823 372.465 356.228H281.389Z" fill="#D4A181"/>
<path fill-rule="evenodd" clip-rule="evenodd" d="M303.804 356.228C317.428 417.569 340.992 515.485 374.495 649.976H410.661C413.332 511.934 401.969 421.079 382.29 356.228H303.804Z" fill="#69A1AC"/>
<path fill-rule="evenodd" clip-rule="evenodd" d="M281.206 356.228C284.786 448.835 275.51 540.071 246.776 651.418H285.363C327.346 558.205 357.437 467.419 378.002 356.228H281.206Z" fill="#89C5CC"/>
<path fill-rule="evenodd" clip-rule="evenodd" d="M242.014 689.52L243.433 666.924C251.741 669.324 262.147 668.382 274.652 664.099C288.097 673.505 305.022 679.928 325.428 683.368C326.985 683.63 328.032 685.09 327.766 686.627C327.749 686.727 327.726 686.826 327.698 686.923L325.737 693.756H274.652H244.852L242.014 689.52Z" fill="#191847"/>
<path fill-rule="evenodd" clip-rule="evenodd" d="M376.421 689.52L377.84 666.924C386.148 669.324 396.555 668.382 409.059 664.099C422.504 673.505 439.429 679.928 459.836 683.368C461.392 683.63 462.439 685.09 462.173 686.627C462.156 686.727 462.134 686.826 462.106 686.923L460.144 693.756H409.059H379.259L376.421 689.52Z" fill="#191847"/>
<path fill-rule="evenodd" clip-rule="evenodd" d="M372.004 292.444L415.6 328.049C427.76 332.043 437.84 336.725 445.839 342.094C447.693 343.966 449.848 347.666 441.763 346.587C433.679 345.507 425.126 344.73 423.843 347.399C422.561 350.068 427.281 353.617 424.797 357.175C423.141 359.547 416.373 352.976 404.492 337.461L360.477 316.43L372.004 292.444Z" fill="#D4A181"/>
<path fill-rule="evenodd" clip-rule="evenodd" d="M368.708 268.082C375.296 283.959 387.266 303.881 410.995 320.84L394.439 337.649C372.398 328.177 350.608 311.248 343.413 291.795C337.743 276.465 353.215 261.424 368.708 268.082Z" fill="#FF1619"/>
<path fill-rule="evenodd" clip-rule="evenodd" d="M388.463 299.274L403.85 346.23L401.29 358.532C402.271 373.944 400.509 388.631 394.252 402.089C381.387 429.758 304.293 404.874 278.5 410.113C261.829 358.35 292.918 337 292.63 303.793C292.314 267.428 321.354 211.208 325.704 211.172L365.378 210.842C367.829 238.596 379.135 269.111 388.463 299.274Z" fill="#FF1619"/>
<path fill-rule="evenodd" clip-rule="evenodd" d="M356.768 245.427L367.273 223.184C362.854 212.131 362.339 205.336 365.729 202.799C367.467 199.683 371.577 214.714 375.822 210.088C380.067 205.462 385.614 187.693 389.068 187.993C394.177 188.438 397.542 198.702 397.328 205.172C396.927 217.264 393.821 223.542 383.878 236.008C378.679 242.525 374.292 251.232 370.716 262.129L356.768 245.427Z" fill="#D4A181"/>
<g filter="url(#filter0_d)">
<path fill-rule="evenodd" clip-rule="evenodd" d="M316.208 283.139C330.506 273.38 347.649 257.565 359.327 231.056L379.532 243.397C374.902 266.67 362.837 291.305 345.129 302.418C331.175 311.176 312.953 299.499 316.208 283.139Z" fill="#FF1619"/>
</g>
</g>
<defs>
<filter id="filter0_d" x="311.826" y="231.056" width="71.7066" height="82.3549" filterUnits="userSpaceOnUse" color-interpolation-filters="sRGB">
<feFlood flood-opacity="0" result="BackgroundImageFix"/>
<feColorMatrix in="SourceAlpha" type="matrix" values="0 0 0 0 0 0 0 0 0 0 0 0 0 0 0 0 0 0 127 0"/>
<feOffset dy="4"/>
<feGaussianBlur stdDeviation="2"/>
<feColorMatrix type="matrix" values="0 0 0 0 0 0 0 0 0 0 0 0 0 0 0 0 0 0 0.25 0"/>
<feBlend mode="normal" in2="BackgroundImageFix" result="effect1_dropShadow"/>
<feBlend mode="normal" in="SourceGraphic" in2="effect1_dropShadow" result="shape"/>
</filter>
<clipPath id="clip0">
<rect width="869" height="764" fill="white"/>
</clipPath>
</defs>
</svg>
