<svg width="593" height="644" viewBox="0 0 593 644" fill="none" xmlns="http://www.w3.org/2000/svg">
<path d="M592.996 3.87442C592.996 3.87442 488.378 -26.686 413.535 83.8515C371.271 146.273 436.293 224.299 436.293 224.299C436.293 224.299 325.174 193.554 279.59 237.954C229.523 286.72 237.976 364.097 237.976 364.097C237.976 364.097 135.241 324.433 39.6583 432.37C-39.8019 522.1 24.7032 641.091 24.7032 641.091H592.996V3.87442Z" fill="#FFE5E6"/>
<path d="M286.092 622.016C286.092 620.911 285.197 620.016 284.092 620.016H282.89C281.786 620.016 280.89 619.12 280.89 618.016V609.929C280.89 608.825 279.995 607.929 278.89 607.929H276.388C275.283 607.929 274.388 608.825 274.388 609.929V618.016C274.388 619.12 273.493 620.016 272.388 620.016H271.186C270.082 620.016 269.186 620.911 269.186 622.016V623.67C269.186 624.941 268.017 625.889 266.774 625.628L246.357 621.329C245.388 621.125 244.478 621.864 244.478 622.854C244.478 623.62 245.036 624.273 245.793 624.392L267.498 627.819C268.47 627.973 269.186 628.811 269.186 629.795V639.09C269.186 640.195 270.082 641.09 271.186 641.09H284.092C285.197 641.09 286.092 640.195 286.092 639.09L286.092 622.016Z" fill="#686868"/>
<rect width="40.3137" height="15.6053" rx="2" transform="matrix(-0.990463 0.137779 0.13778 0.990463 312.552 550.06)" fill="black"/>
<rect width="11.704" height="18.2062" rx="2" transform="matrix(-0.998756 -0.0498743 -0.0498735 0.998756 262.929 559.3)" fill="black"/>
<rect width="1.30044" height="57.2194" transform="matrix(-0.960207 -0.27929 -0.27929 0.960207 286.092 506.208)" fill="black"/>
<path fill-rule="evenodd" clip-rule="evenodd" d="M435.181 160.642C440.605 157.951 447.835 161.071 444.819 168.184C441.588 175.8 429.642 175.894 422.896 175.743C423.571 175.708 425.745 168.724 426.49 167.668C428.685 164.555 431.846 162.299 435.181 160.642ZM372.687 297.193C371.319 298.364 372.576 297.303 372.687 297.193V297.193ZM440.406 195.09C443.58 197.517 443.731 201.803 441.138 204.703C438.051 208.156 432.413 208.031 428.205 207.694C426.302 207.542 416.137 206.727 418.547 205.064C418.361 205.134 417.974 205.304 417.56 205.535C417.337 206.349 417.103 207.161 416.859 207.969C416.919 208.004 416.97 208.042 417.034 208.077C416.965 208.046 416.916 208.014 416.855 207.983C414.411 216.061 410.932 223.753 406.376 230.95C408.08 230.278 409.846 229.77 411.636 229.544C416.939 228.873 428.094 232.995 422.162 240.057C416.475 246.828 407.621 239.564 401.166 238.563C394.906 247.303 388.003 255.68 380.769 263.777C381.212 263.916 381.601 264.205 381.824 264.655C384.726 263.183 387.75 261.076 390.436 260.505C394.312 259.683 402.259 259.185 405.189 262.655C408.791 266.922 404.929 270.388 400.673 271.207C394.5 272.394 386.421 269.377 380.481 267.339C379.802 267.459 379.06 267.26 378.617 266.717C378.486 266.673 378.355 266.631 378.227 266.59C370.901 274.647 363.295 282.439 355.736 290.059C355.816 290.055 355.897 290.05 355.98 290.046C357.952 288.752 360.068 287.69 362.36 287.134C367.664 285.841 373.905 285.835 378.209 289.674C382.496 293.496 384.015 300.181 379.579 304.473C370.701 313.065 357.62 293.475 353.142 292.658C345.46 300.321 337.336 307.48 329.085 314.495C330.022 314.21 330.983 314 331.977 313.906C340.067 313.131 359.058 323.053 349.129 332.816C340.476 341.323 330.461 324.949 323.488 319.222C315.713 325.761 307.895 332.254 300.297 339.001C304.441 337.9 308.446 337.738 312.888 339.081C317.485 340.472 324.902 343.944 321.996 350.153C319.041 356.466 310.134 353.593 305.495 351.589C302.965 350.496 297.892 346.806 293.437 345.252C281.313 356.702 270.811 369.314 262.861 384.171C257.897 393.447 254.131 403.358 251.48 413.544C249.787 420.045 246.453 430.965 247.121 439.427C243.939 422.489 249.692 402.146 255.889 387.006C261.587 373.084 270.115 360.862 280.104 349.861C277.598 342.32 256.499 331.442 269.112 324.435C275.81 320.73 282.67 326.878 284.134 333.388C285.14 337.862 283.608 343.484 281.982 347.826C285.124 344.473 288.39 341.227 291.756 338.089C296.408 333.752 301.171 329.541 305.98 325.383C298.056 317.937 290.557 296.647 301.181 293.166C316.871 288.039 309.316 317.078 308.222 322.521C307.911 322.539 307.669 322.445 307.491 322.244C307.579 322.742 307.681 323.275 307.805 323.813C317.009 315.896 326.35 308.135 335.382 300.029C334.568 299.427 333.275 297.128 332.258 295.905C329.963 293.146 327.768 290.264 326.163 287.037C323.629 281.937 321.184 273.802 327.903 270.803C335.21 267.534 338.682 276.735 338.733 282.223C338.768 286.019 337.734 289.625 337.196 293.346C337.028 294.506 337.676 299.737 336.095 297.487C336.17 298.317 336.181 298.917 336.144 299.343C337.765 297.881 339.375 296.403 340.974 294.913C340.9 294.725 340.845 294.52 340.832 294.283C340.746 292.646 342.392 292.016 343.547 292.495C345.657 290.49 347.746 288.459 349.798 286.388C354.147 281.999 358.559 277.486 362.941 272.876C361.99 272.059 362.368 270.928 361.479 270.061C360.591 269.196 358.843 268.717 357.8 267.913C355.174 265.89 352.997 262.943 351.423 260.043C348.824 255.251 345.465 245.197 353.058 242.913C360.885 240.555 364.857 250.233 365.36 256.283C365.458 257.455 364.581 268.016 363.909 271.851C372.017 263.285 379.991 254.397 387.216 245.354C385.025 245.334 378.815 240.844 377.559 239.619C374.496 236.631 369.626 230.029 374.997 226.535C379.772 223.436 385.658 227.925 387.7 232.287C388.036 233.005 389.219 239.691 389.312 242.69C392.302 238.855 395.154 234.998 397.808 231.129C399.578 228.556 401.232 225.915 402.779 223.218C402.406 223.007 402.056 222.639 401.725 222.181C393.761 220.829 383.607 208.398 392.961 204.073C397.415 202.017 402.246 206.262 404.428 209.737C404.875 210.448 405.599 214.023 406.188 216.843C410.639 207.909 414.041 198.451 416.63 188.753C415.937 188.581 415.35 188.051 415.273 187.14C411.406 184.934 408.352 183.098 405.653 178.858C403.976 176.224 400.956 170.207 405.884 168.745C412.296 166.843 416.324 176.64 416.848 181.465C416.909 182.025 416.907 183.654 416.886 185.147C417.108 185.117 417.333 185.12 417.554 185.159C419.027 179.155 420.202 173.072 421.137 166.98C417.637 165.853 417.032 147.467 419.363 144.849C424.571 138.987 428.246 147.455 427.968 151.93C427.639 157.207 425.249 162.007 422.402 166.268C422.097 166.719 422.184 166.697 422.105 166.068C422.061 166.379 421.957 166.608 421.803 166.774C421.95 169.552 422.236 172.396 422.099 174.854C421.705 181.893 420.885 188.973 419.695 195.922C419.405 197.612 419.074 199.288 418.702 200.949C421.515 198.552 425.308 196.422 426.792 195.756C430.644 194.029 436.58 192.164 440.406 195.09ZM246.669 439.45C246.848 441.905 247.29 444.153 248.117 446.006C247.497 443.896 247.021 441.703 246.669 439.45Z" fill="#FFF0F0"/>
<g opacity="0.7">
<path opacity="0.7" fill-rule="evenodd" clip-rule="evenodd" d="M329.674 326.896C314.61 326.115 295.981 334.91 294.373 351.29C293.206 363.191 293.568 375.059 291.761 386.942C290.316 396.439 287.261 405.556 283.094 414.208C279.086 422.527 270.774 429.608 268.612 438.495C267.235 444.158 268.006 452.124 269.906 457.663C272.217 464.398 270.989 463.866 266.384 469.517C257.361 480.591 249.237 491.947 243.491 505.173C235.215 524.224 229.79 546.492 232.861 567.345C233.252 569.994 233.715 579.497 237.361 580.161C241.432 580.904 239.528 575.469 239.311 573.713C237.926 562.511 236.695 552.719 238.366 541.342C244.813 497.445 276.294 468.524 296.792 431.268C297.919 429.346 300.298 424.771 301.952 421.753C304.563 416.988 307.188 407.921 310.723 404.388C317.381 397.731 311.26 411.113 309.963 413.668C308.323 416.899 306.518 420.334 304.837 423.165C297.147 436.291 288.563 450.618 280.62 464.148C314.972 471.977 339.165 430.666 348.383 403.505C355.978 381.129 365.066 328.811 329.674 326.896Z" fill="#FFC7C9"/>
<path opacity="0.7" fill-rule="evenodd" clip-rule="evenodd" d="M127.773 285.342C152.956 287.34 169.122 303.963 176.648 327.212C180.704 339.741 181.168 352.612 183.422 365.487C186.813 384.859 194.108 399.539 208.366 413.34C212.782 417.614 216.036 422.003 218.35 426.698C222.942 431.386 226.94 436.691 229.877 443.176C233.628 451.459 234.69 461.397 230.358 469.654C229.194 471.874 226.288 476.33 223.277 478.355C234.551 502.373 240.749 528.677 240.05 554.947C239.628 570.806 238.854 586.671 237.951 602.509C237.708 606.762 236.324 613.785 234.244 606.653C232.341 600.129 234.728 589.888 234.949 583.072C236.023 549.87 236.942 519.682 223.279 488.662C221.846 485.411 220.327 482.186 218.745 478.987C218.652 478.933 218.566 478.868 218.479 478.805C218.418 478.851 218.364 478.901 218.303 478.947C218.202 478.767 218.064 478.552 217.903 478.312C217.449 477.844 217.053 477.252 216.676 476.591C215.464 474.911 214.092 472.938 214.085 471.857C214.085 471.849 214.09 471.836 214.09 471.828C205.632 458.016 195.944 444.966 186.048 432.171C186.123 432.264 175.315 417.544 176.986 425.684C177.792 429.607 185.741 437.078 188.952 441.233C196.054 450.478 204.395 462.191 211.325 473.518C212.258 474.054 213.576 476.686 214.529 478.647C215.055 479.64 215.546 480.642 216.028 481.514C191.47 489.631 172.367 473.282 159.341 454.266C159.325 454.244 159.311 454.22 159.296 454.198C155.332 448.944 151.271 443.726 146.198 439.573C137.735 432.642 128.671 431.419 118.692 428.008C91.4782 418.707 79.9078 383.427 76.2332 357.249C72.0872 327.716 92.3672 282.43 127.773 285.342Z" fill="#FFC7C9"/>
<path opacity="0.7" fill-rule="evenodd" clip-rule="evenodd" d="M177.517 202.637C203.362 229.545 215.848 266.867 225.736 301.954C236.778 341.142 244.072 380.934 244.352 421.677C244.536 448.446 245.264 475.382 243.702 502.119C243.148 511.615 242.201 521.128 240.697 530.521C240.573 531.293 237.206 552.268 233.986 547.38C232.154 544.601 237.436 525.622 237.835 522.461C240.081 504.657 240.602 486.722 240.493 468.789C240.313 439.263 241.183 409.889 238.191 380.472C237.746 376.08 237.393 371.466 236.35 367.17C235.242 362.602 236.653 364.596 233.046 362.787C229.541 361.029 225.21 361.28 221.574 359.075C207.15 350.325 199.771 327.852 194.028 313.106C187.46 296.243 183.468 278.261 180.279 260.515C177.938 247.477 176.264 234.518 175.317 221.312C175.018 217.15 175.001 212.798 174.183 208.705C173.963 207.601 172.857 205.648 172.897 204.671C172.982 202.602 174.231 201.385 174.333 199.646C175.415 200.62 176.477 201.618 177.517 202.637Z" fill="#FF8D92"/>
<path opacity="0.7" fill-rule="evenodd" clip-rule="evenodd" d="M318.444 561.144C318.444 605.644 282.381 641.718 237.897 641.718C193.412 641.718 157.35 605.644 157.35 561.144" fill="#FF6F74"/>
<path opacity="0.7" fill-rule="evenodd" clip-rule="evenodd" d="M231.434 561.401H235.69C235.395 556.059 235.005 550.727 234.112 545.445C230.698 525.243 220.022 495.572 196.608 492.293C195.744 492.171 192.567 492.151 188.718 492.376C186.893 491.357 184.85 490.74 182.697 490.598C162.762 489.128 140.5 505.216 130.884 521.958C123.132 535.456 124.438 553.181 129.226 567.522C132.432 577.123 139.43 590.811 151.099 590.945C165.699 591.112 166.403 573.061 166.685 562.509C167.061 548.48 168.833 536.258 179.884 526.696C182.459 524.468 185.275 522.508 187.876 520.311C191.95 516.873 196.452 513.352 196.977 507.664C197.701 499.816 193.272 498.404 186.511 499.862C185.358 500.11 173.747 505.322 175.466 501.202C175.991 499.944 177.908 498.947 180.328 498.199C186.589 497.518 194.055 496.728 196.203 497.2C219.369 502.284 228.389 534.384 230.784 554.779C231.043 556.981 231.252 559.189 231.434 561.401Z" fill="#FFC7C9"/>
</g>
<rect x="243.524" y="566.042" width="326.411" height="44.215" transform="rotate(2.27872 243.524 566.042)" fill="black"/>
<path d="M336.613 548.84C336.613 548.84 367.925 530.563 397.497 523.281C421.068 519.663 485.832 527.447 485.832 527.447C508.653 534.105 540.75 553.709 540.75 553.709L577.628 559.081L579.189 568.904L575.941 568.775L575.734 573.972L578.982 574.102L578.75 579.949C581.869 583.327 580.883 591.747 578.831 594.268L578.391 605.313L574.286 610.356L574.079 615.554L567.973 621.818L538.087 620.629C538.087 620.629 541.484 584.323 508.921 584.979C476.358 585.636 480.108 622.226 480.108 622.226L319.527 618.439C319.527 618.439 326.874 580.989 293.739 579.67C260.604 578.352 264.302 616.242 264.302 616.242L244.811 615.466L232.725 608.478L232.983 601.981L236.882 602.136L237.295 591.741L233.397 591.585L233.785 581.84L240.149 569.078C240.149 569.078 241.276 565.302 247.876 562.962L331.035 550.003L270.082 495.518C270.082 495.518 274.006 495.024 279.1 497.829L336.613 548.84Z" fill="#FF2929"/>
<path d="M321.137 610.694C383.065 607.953 479.144 613.728 479.144 613.728" stroke="black"/>
<path d="M246.621 569.987C255.144 568.374 272.037 569.046 272.037 569.046L261.15 580.977L237.761 580.046C237.761 580.046 241.268 573.678 246.621 569.987Z" fill="white"/>
<path d="M246.595 570.636C249.219 570.09 251.143 570.817 251.143 570.817L246.883 579.758L238.436 579.422C238.436 579.422 242.567 573.73 246.595 570.636Z" fill="#E6E6E6"/>
<path d="M426.066 530.04C426.602 530.077 427.016 530.113 427.301 530.14L422.798 610.997L339.217 609.601C339.21 609.348 339.202 608.996 339.195 608.554C339.178 607.567 339.165 606.129 339.175 604.329C339.197 600.728 339.317 595.68 339.709 589.892C340.492 578.359 342.356 563.928 346.665 552.16C368.226 538.815 388.493 533.322 403.376 531.165C410.834 530.084 416.94 529.841 421.177 529.868C423.295 529.881 424.947 529.962 426.066 530.04Z" stroke="black"/>
<path d="M515.34 556.03C515.372 556.071 515.401 556.107 515.425 556.138L514.495 579.505C495.122 579.2 484.355 587.579 478.447 596.106C475.477 600.394 473.742 604.707 472.75 607.947C472.253 609.568 471.942 610.922 471.754 611.873C471.667 612.316 471.606 612.671 471.567 612.926L422.497 610.973L426.767 530.151L470.032 531.873C484.182 532.76 495.557 538.855 503.405 544.744C507.328 547.688 510.365 550.577 512.419 552.728C513.446 553.803 514.227 554.693 514.75 555.313C515.011 555.624 515.209 555.866 515.34 556.03Z" stroke="black"/>
<path d="M421.791 554.331L347.587 551.379C362.474 539.371 381.12 534.006 396.203 531.656C403.912 530.456 410.678 530.045 415.515 529.934C417.934 529.878 419.869 529.898 421.199 529.931C421.864 529.948 422.377 529.968 422.724 529.984C422.736 529.985 422.748 529.985 422.76 529.986L421.791 554.331Z" fill="#D1FCFF" stroke="black"/>
<path d="M516.888 553.072L517.273 556.829L491.711 555.812L492.432 537.684L516.888 553.072Z" fill="#D1FCFF" stroke="black"/>
<path d="M488.373 535.394C488.6 535.51 488.779 535.607 488.908 535.679L488.113 555.669L430.638 553.382L431.555 530.342L476.847 532.144C480.836 532.626 483.922 533.551 486.007 534.353C487.051 534.755 487.844 535.126 488.373 535.394Z" fill="#D1FCFF" stroke="black"/>
<path d="M238.779 603.513C241.378 603.616 247.875 603.875 247.875 603.875L245.771 607.695L236.675 607.333C236.675 607.333 236.753 605.384 238.779 603.513Z" fill="black" fill-opacity="0.54"/>
<path d="M235.996 591.689C236.302 591.701 237.295 591.741 237.295 591.741L236.882 602.136L235.582 602.084C235.582 602.084 235.56 596.877 235.996 591.689Z" fill="#C60000"/>
<path d="M356.831 547.692C369.347 543.854 372.502 546.363 376.348 547.818C377.741 551.089 377.577 553.735 375.987 556.914C371.335 559.332 365.488 559.099 355.846 556.112C354.891 552.942 354.583 550.945 356.831 547.692Z" fill="#F30D0D"/>
<path d="M356.805 548.342C369.321 544.504 371.826 546.987 375.673 548.442C376.946 549.143 376.34 555.273 376.34 555.273C371.689 557.691 365.816 558.108 356.174 555.122C354.701 552.162 356.805 548.342 356.805 548.342Z" fill="#FF2929"/>
<path d="M399.574 570.318C410.495 569.44 413.328 570.274 416.745 570.804C418.045 571.829 417.962 572.629 416.635 573.558C412.599 574.185 407.45 573.98 398.9 572.852C397.988 571.868 397.67 571.254 399.574 570.318Z" fill="black" fill-opacity="0.26"/>
<path d="M480.137 573.524C491.059 572.646 493.891 573.48 497.309 574.01C498.609 575.036 498.525 575.835 497.199 576.764C493.163 577.391 488.014 577.186 479.463 576.058C478.551 575.074 478.234 574.46 480.137 573.524Z" fill="black" fill-opacity="0.26"/>
<path d="M551.329 565.843L577.967 566.903L577.89 568.852L575.941 568.775L575.734 573.972L578.982 574.102L578.776 579.299L559.934 578.55L551.329 565.843Z" fill="#C60000"/>
<path d="M571.47 566.645L577.967 566.903L577.89 568.852L575.941 568.775L575.734 573.972L578.983 574.102L578.776 579.299L570.979 578.989L571.186 573.791L569.887 573.74L570.093 568.542L571.393 568.594L571.47 566.645Z" fill="#B10000"/>
<circle r="17.7062" transform="matrix(0.999209 0.0397612 -0.0397601 0.999209 292.705 605.658)" fill="#2E3A63" stroke="#B1D0FC"/>
<circle cx="292.705" cy="605.658" r="6.50221" transform="rotate(2.27872 292.705 605.658)" fill="#B1D0FC"/>
<path d="M290.739 588.011L295.937 588.217L294.12 601.16L291.521 601.056L290.739 588.011Z" fill="#B1D0FC"/>
<path d="M306.683 594.502L308.962 599.177L297.245 603.442L296.106 601.104L306.683 594.502Z" fill="#B1D0FC"/>
<path d="M280.039 593.441L277.395 597.921L288.736 603.103L290.058 600.864L280.039 593.441Z" fill="#B1D0FC"/>
<path d="M277.494 614.784L275.342 610.049L287.095 606.136L288.171 608.504L277.494 614.784Z" fill="#B1D0FC"/>
<path d="M307.244 615.128L309.766 610.578L298.361 605.745L297.1 608.019L307.244 615.128Z" fill="#B1D0FC"/>
<path d="M289.434 622.448L294.632 622.654L293.849 609.609L291.25 609.505L289.434 622.448Z" fill="#B1D0FC"/>
<circle cx="509.707" cy="614.293" r="26.0088" transform="rotate(2.27871 509.707 614.293)" fill="#2E3A63"/>
<circle cx="509.707" cy="614.293" r="17.7062" transform="rotate(2.27871 509.707 614.293)" fill="#2E3A63" stroke="#B1D0FC"/>
<circle r="6.50221" transform="matrix(0.999209 0.0397591 -0.0397621 0.999209 509.707 614.294)" fill="#B1D0FC"/>
<path d="M507.741 596.646L512.939 596.852L511.122 609.795L508.523 609.691L507.741 596.646Z" fill="#B1D0FC"/>
<path d="M523.684 603.137L525.964 607.812L514.247 612.077L513.107 609.739L523.684 603.137Z" fill="#B1D0FC"/>
<path d="M497.041 602.076L494.397 606.556L505.738 611.738L507.06 609.498L497.041 602.076Z" fill="#B1D0FC"/>
<path d="M494.496 623.419L492.344 618.684L504.097 614.771L505.173 617.139L494.496 623.419Z" fill="#B1D0FC"/>
<path d="M524.246 623.763L526.768 619.213L515.363 614.38L514.102 616.654L524.246 623.763Z" fill="#B1D0FC"/>
<path d="M506.436 631.083L511.634 631.289L510.851 618.244L508.252 618.14L506.436 631.083Z" fill="#B1D0FC"/>
<path d="M334.179 550.073L274.234 496.599L272.016 496.472L332.211 550.431L334.179 550.073Z" fill="#E00000"/>
<path fill-rule="evenodd" clip-rule="evenodd" d="M222.16 515.81C222.162 513.521 222.785 511.225 224.47 509.463C229.323 504.384 235.652 511.573 234.812 515.457C233.971 519.341 228.06 526.092 225.817 525.068C224.922 524.659 223.755 522.903 222.982 520.616L217.954 528.666L212.061 523.829L222.16 515.81Z" fill="#B28B67"/>
<path fill-rule="evenodd" clip-rule="evenodd" d="M231.881 513.783C230.699 513.583 229.414 513.976 227.79 514.543C227.679 514.337 227.528 514.15 227.338 513.993C226.524 513.321 225.301 513.456 224.606 514.294C224.254 514.719 224.105 515.244 224.15 515.746C223.398 515.96 222.587 516.162 221.706 516.335C220.909 513.975 222.133 510.029 226.048 508.477C232.107 503.896 236.787 513.71 239.046 513.959C237.654 516.288 235.242 517.101 231.881 513.783Z" fill="#191847"/>
<path fill-rule="evenodd" clip-rule="evenodd" d="M201.956 621.076L221.808 618.896L207.095 550.101H189.314L201.956 621.076Z" fill="#69A1AC"/>
<path fill-rule="evenodd" clip-rule="evenodd" d="M195.061 618.97H208.733C205.465 602.077 206.115 595.575 205.465 589.073C205.465 583.871 203.608 570.519 205.425 550.101H185.406C184.414 568.064 189.555 588.237 189.209 589.073C188.864 589.909 193.11 605.315 195.061 618.97Z" fill="#89C5CC"/>
<path fill-rule="evenodd" clip-rule="evenodd" d="M240.09 548.314L250.268 556.037C253.12 556.837 255.481 557.813 257.351 558.965C257.783 559.375 258.282 560.199 256.383 560.027C254.484 559.855 252.473 559.756 252.166 560.377C251.858 560.998 252.961 561.764 252.369 562.599C251.975 563.155 250.397 561.718 247.635 558.287L237.326 553.892L240.09 548.314ZM214.517 546.67L218.866 542.77C236.034 555.302 242.52 560.078 244.479 560.642C247.03 561.377 250.168 562.742 250.985 564.161C248.77 565.406 246.419 562.444 245.703 566.219C245.016 568.117 246.198 571.495 243.017 570.062C242.625 569.885 240.39 570.152 240.42 568.276C239.801 566.422 241.793 564.479 241.167 562.625C239.207 562.068 230.065 559.258 214.517 546.67Z" fill="#B28B67"/>
<path fill-rule="evenodd" clip-rule="evenodd" d="M212.331 526.766L215.125 525.673C222.452 540.017 247.667 545.434 250.141 550.853C251.049 552.841 249.659 554.244 250.593 554.707L247.326 558.133C246.563 557.563 245.446 559.148 242.456 558.853C239.466 558.558 215.634 544.91 212.331 526.766Z" fill="#DB2721"/>
<path fill-rule="evenodd" clip-rule="evenodd" d="M220.568 528.772C220.568 528.772 217.185 534.819 219.165 537.423C224.981 545.073 245.229 550.164 241.817 558.847C240.504 562.186 232.065 560.558 228.175 558.745C224.596 557.077 211.337 545.629 211.337 545.629C211.337 545.629 213.096 560.016 211.983 565.977C211.23 570.004 183.607 565.16 182.697 559.94C181.858 555.131 185.339 547.511 185.339 547.511C185.339 547.511 197.466 522 212.163 520.812L213.259 519.257C213.684 518.654 214.491 518.49 215.062 518.888L222.377 524.014C222.948 524.413 223.067 525.227 222.642 525.83L222.641 525.831L220.568 528.772Z" fill="#FF4133"/>
<rect width="61.1207" height="28.6097" rx="2" transform="matrix(-1 0 0 1 227.572 612.481)" fill="#2E3A63"/>
<rect width="58.5199" height="1.30044" rx="0.650221" transform="matrix(-1 0 0 1 226.272 617.683)" fill="#283255"/>
<rect width="58.5199" height="1.30044" rx="0.650221" transform="matrix(-1 0 0 1 226.272 622.884)" fill="#283255"/>
<rect width="58.5199" height="1.30044" rx="0.650221" transform="matrix(-1 0 0 1 226.272 628.086)" fill="#283255"/>
<rect width="58.5199" height="1.30044" rx="0.650221" transform="matrix(-1 0 0 1 226.272 633.288)" fill="#283255"/>
<rect width="61.1207" height="28.6097" rx="2" transform="matrix(-0.710716 0.703479 0.703479 0.710716 163.231 577.369)" fill="#2E3A63"/>
<rect width="58.5199" height="1.30044" rx="0.650221" transform="matrix(-0.710715 0.70348 0.703478 0.710717 165.966 581.981)" fill="#283255"/>
<rect width="58.5199" height="1.30044" rx="0.650221" transform="matrix(-0.710718 0.703477 0.703482 0.710714 169.625 585.678)" fill="#283255"/>
<rect width="58.5199" height="1.30044" rx="0.650221" transform="matrix(-0.710716 0.703479 0.703479 0.710716 173.285 589.375)" fill="#283255"/>
<rect width="58.5199" height="1.30044" rx="0.650221" transform="matrix(-0.710718 0.703477 0.703482 0.710714 176.944 593.072)" fill="#283255"/>
<path fill-rule="evenodd" clip-rule="evenodd" d="M571.582 567.019C570.678 566.91 569.713 566.949 568.872 567.301C567.085 568.05 566.577 570.134 566.601 571.828C566.628 573.652 567.02 575.643 565.615 577.112C564.97 577.788 564.167 578.305 563.533 578.992C562.855 579.728 562.324 580.569 561.93 581.472C561.208 583.131 560.853 585.081 561.514 586.822C562.096 588.354 563.559 589.737 563.243 591.479C562.913 593.296 561.057 594.686 559.896 596.039C558.582 597.571 557.373 599.529 557.174 601.538C556.984 603.464 557.833 605.411 559.136 606.866C561.74 609.774 565.653 611.2 569.599 611.191C571.275 611.187 573.172 611.113 574.618 610.224C575.064 609.949 575.3 609.641 575.566 609.213C575.804 608.829 576.119 608.579 576.483 608.307C577.283 607.71 577.861 606.905 578.229 606.005C579.661 602.506 578.517 598.178 576.513 595.071C576.038 594.335 575.649 593.627 575.879 592.75C576.12 591.834 576.712 591.008 577.235 590.221C577.753 589.443 578.343 588.701 578.747 587.859C579.171 586.978 579.29 586.055 579.215 585.091C579.075 583.279 578.282 581.608 577.161 580.151C576.08 578.747 574.811 577.405 574.809 575.566C574.805 573.617 576.125 571.883 575.563 569.902C575.33 569.082 574.863 568.24 574.109 567.748C573.386 567.276 572.432 567.122 571.582 567.019Z" fill="#DDE3E9"/>
<path fill-rule="evenodd" clip-rule="evenodd" d="M572.172 570.135C572.155 569.873 571.841 569.716 571.593 569.785C571.267 569.874 571.273 570.175 571.282 570.443C571.308 571.266 571.188 572.066 570.987 572.865C570.57 574.526 569.8 576.056 569.19 577.651C568.581 579.245 568.295 580.89 568.652 582.577C568.989 584.167 569.519 585.716 569.864 587.308C570.168 588.711 570.492 590.191 570.028 591.591C569.583 592.938 568.598 594.035 567.888 595.253C566.42 597.774 565.768 600.57 565.681 603.447C565.641 604.783 565.677 606.132 565.991 607.443C566.172 608.197 566.415 609.217 567.07 609.738C567.372 609.978 567.889 610.061 568.143 609.705C568.382 609.372 568.172 608.855 568.096 608.5C567.768 606.96 567.702 605.386 567.781 603.823C567.857 602.309 568.038 600.797 568.521 599.351C568.969 598.009 569.65 596.803 570.451 595.629C571.268 594.433 572.117 593.234 572.454 591.816C572.797 590.376 572.518 588.911 572.146 587.499C571.752 586.005 571.236 584.554 570.703 583.1C570.183 581.684 569.999 580.344 570.286 578.862C570.853 575.933 572.37 573.185 572.172 570.135Z" fill="#C5CFD6"/>
<path fill-rule="evenodd" clip-rule="evenodd" d="M547.715 570.573C546.597 570.908 545.486 571.449 544.688 572.297C542.993 574.101 543.513 576.826 544.449 578.817C545.457 580.96 546.983 583.114 546.123 585.573C545.727 586.703 545.062 587.727 544.687 588.866C544.286 590.083 544.113 591.35 544.135 592.62C544.176 594.953 544.804 597.442 546.511 599.161C548.014 600.674 550.472 601.558 551.034 603.781C551.62 606.1 550.187 608.696 549.55 610.893C548.83 613.379 548.46 616.316 549.303 618.794C550.11 621.168 552.149 623.035 554.457 624.087C559.068 626.19 564.422 625.866 569.045 623.83C571.008 622.965 573.193 621.902 574.413 620.109C574.79 619.555 574.902 619.069 574.984 618.426C575.057 617.85 575.293 617.393 575.574 616.884C576.193 615.767 576.44 614.519 576.39 613.265C576.196 608.392 572.536 603.861 568.521 601.216C567.57 600.59 566.735 599.952 566.536 598.796C566.328 597.589 566.579 596.308 566.772 595.109C566.962 593.923 567.257 592.742 567.28 591.54C567.305 590.28 566.951 589.128 566.347 588.025C565.212 585.955 563.387 584.385 561.291 583.238C559.272 582.133 557.065 581.197 556.077 579.023C555.03 576.72 555.65 573.992 553.929 571.938C553.217 571.087 552.217 570.332 551.07 570.137C549.969 569.95 548.767 570.258 547.715 570.573Z" fill="#DDE3E9"/>
<path fill-rule="evenodd" clip-rule="evenodd" d="M550 574.381C549.842 574.08 549.391 574.057 549.137 574.266C548.804 574.541 548.971 574.894 549.123 575.206C549.59 576.168 549.874 577.177 550.063 578.227C550.457 580.409 550.369 582.62 550.502 584.824C550.634 587.027 551.173 589.124 552.486 590.936C553.724 592.645 555.165 594.205 556.414 595.912C557.514 597.417 558.677 599.002 558.879 600.899C559.072 602.725 558.503 604.534 558.319 606.343C557.939 610.088 558.661 613.736 560.086 617.189C560.748 618.792 561.506 620.37 562.569 621.76C563.18 622.56 564.006 623.642 565.048 623.92C565.529 624.048 566.177 623.879 566.286 623.326C566.388 622.808 565.869 622.304 565.591 621.922C564.391 620.269 563.479 618.44 562.741 616.548C562.026 614.715 561.436 612.831 561.233 610.868C561.045 609.047 561.202 607.267 561.516 605.462C561.836 603.623 562.192 601.764 561.834 599.911C561.471 598.028 560.368 596.437 559.183 594.957C557.93 593.392 556.557 591.94 555.162 590.495C553.803 589.087 552.877 587.595 552.426 585.691C551.534 581.93 551.85 577.89 550 574.381Z" fill="#C5CFD6"/>
<path fill-rule="evenodd" clip-rule="evenodd" d="M582.295 584.406C580.435 584.406 578.8 585.38 577.673 586.76C576.354 588.377 576.088 590.351 575.552 592.277C575.286 593.236 574.827 594.188 574.024 594.839C573.294 595.432 572.366 595.55 571.492 595.84C569.744 596.418 568.333 597.812 567.775 599.512C567.095 601.586 567.815 603.677 567.691 605.779C567.578 607.709 565.649 608.913 564.098 609.838C562.568 610.751 561.19 611.605 560.73 613.382C560.241 615.267 560.077 617.372 560.754 619.234C561.881 622.335 565.178 623.7 568.364 623.912C571.255 624.104 574.89 623.802 577.062 621.731C578.361 620.491 578.832 618.757 578.773 617.032C578.737 615.96 578.522 614.897 578.243 613.861C578.046 613.126 577.78 612.395 577.704 611.636C577.502 609.616 579.393 609.228 581.003 608.674C583.049 607.969 584.481 606.638 585.476 604.783C586.404 603.057 586.793 601.118 586.237 599.217C585.953 598.247 585.438 597.366 584.74 596.617C584.432 596.287 583.999 596.012 583.721 595.666C583.462 595.342 583.519 594.923 583.608 594.544C584.021 592.794 585.307 591.345 585.767 589.598C586.182 588.021 585.936 586.058 584.476 585.041C583.845 584.602 583.066 584.411 582.295 584.406Z" fill="#C5CFD6"/>
<path fill-rule="evenodd" clip-rule="evenodd" d="M579.761 588.967C577.789 591.039 577.253 593.851 577.096 596.577C577.008 598.105 577.1 599.717 576.645 601.2C576.256 602.469 575.343 603.438 574.402 604.355C572.509 606.2 570.397 608.076 569.844 610.747C569.519 612.314 569.738 613.933 569.289 615.483C568.881 616.892 568.162 618.276 567.287 619.466C566.583 620.424 565.666 621.158 564.897 622.051C564.662 622.323 564.326 622.725 564.422 623.109C564.536 623.56 565.117 623.703 565.53 623.632C566.492 623.467 567.302 622.56 567.932 621.901C568.851 620.937 569.633 619.9 570.269 618.737C570.974 617.445 571.542 616.074 571.785 614.625C572.037 613.122 571.911 611.555 572.486 610.112C573.454 607.684 575.801 606.252 577.498 604.359C579.612 602.002 579.297 599.067 579.08 596.167C578.961 594.573 578.843 592.773 579.659 591.317C579.971 590.762 580.665 590.244 580.799 589.613C580.922 589.034 580.252 588.449 579.761 588.967Z" fill="#AFB9C5"/>
<path fill-rule="evenodd" clip-rule="evenodd" d="M577.658 623.026C577.658 634.88 575.699 641.09 565.352 641.09C555.006 641.09 553.046 634.88 553.046 623.026H577.658Z" fill="#89C5CC"/>
</svg>
