<svg width="207" height="232" viewBox="0 0 207 232" fill="none" xmlns="http://www.w3.org/2000/svg">
<g clip-path="url(#clip0)">
<path d="M197.365 116.012H9.6347C7.0803 116.009 4.63136 114.993 2.82513 113.188C1.0189 111.383 0.0028851 108.935 0 106.383V97.629C0.0028851 95.0761 1.0189 92.6286 2.82513 90.8234C4.63136 89.0183 7.0803 88.0029 9.6347 88H197.365C199.92 88.0029 202.369 89.0183 204.175 90.8234C205.981 92.6286 206.997 95.0761 207 97.629V106.383C206.997 108.935 205.981 111.383 204.175 113.188C202.369 114.993 199.92 116.009 197.365 116.012ZM9.6347 88.5836C7.23512 88.5863 4.93459 89.5402 3.23783 91.2359C1.54107 92.9317 0.586638 95.2308 0.583918 97.629V106.383C0.586638 108.781 1.54107 111.08 3.23783 112.776C4.93459 114.471 7.23512 115.425 9.6347 115.428H197.365C199.765 115.425 202.065 114.471 203.762 112.776C205.459 111.08 206.413 108.781 206.416 106.383V97.629C206.413 95.2308 205.459 92.9317 203.762 91.2359C202.065 89.5402 199.765 88.5863 197.365 88.5836H9.6347Z" fill="#3F3D56"/>
<path d="M148.608 96.4619H23.9408C20.8771 96.4619 18.3936 98.944 18.3936 102.006V102.006C18.3936 105.068 20.8771 107.55 23.9408 107.55H148.608C151.672 107.55 154.155 105.068 154.155 102.006C154.155 98.944 151.672 96.4619 148.608 96.4619Z" fill="#E6E6E6"/>
<path d="M164.958 145.086H40.2906C37.227 145.086 34.7434 147.568 34.7434 150.63V150.63C34.7434 153.692 37.227 156.174 40.2906 156.174H164.958C168.021 156.174 170.505 153.692 170.505 150.63C170.505 147.568 168.021 145.086 164.958 145.086Z" fill="#FF0003"/>
<path d="M164.958 180.34H40.2906C37.227 180.34 34.7434 182.822 34.7434 185.884V185.884C34.7434 188.946 37.227 191.428 40.2906 191.428H164.958C168.021 191.428 170.505 188.946 170.505 185.884C170.505 182.822 168.021 180.34 164.958 180.34Z" fill="#E6E6E6"/>
<path d="M164.958 215.594H40.2906C37.227 215.594 34.7434 218.076 34.7434 221.138V221.138C34.7434 224.2 37.227 226.682 40.2906 226.682H164.958C168.021 226.682 170.505 224.2 170.505 221.138C170.505 218.076 168.021 215.594 164.958 215.594Z" fill="#E6E6E6"/>
<path d="M188.751 107.995C188.618 108.185 188.415 108.314 188.187 108.354C187.958 108.394 187.724 108.342 187.534 108.21L182.767 104.895C182.577 104.762 182.448 104.559 182.408 104.331C182.368 104.103 182.42 103.868 182.553 103.679C182.685 103.489 182.888 103.36 183.117 103.32C183.345 103.279 183.58 103.331 183.769 103.464L188.536 106.779C188.726 106.912 188.855 107.115 188.895 107.343C188.936 107.571 188.884 107.805 188.751 107.995Z" fill="#FF0003"/>
<path d="M183.339 104.229C182.635 105.233 181.65 106.007 180.506 106.451C179.363 106.895 178.113 106.991 176.916 106.726C175.718 106.46 174.626 105.846 173.778 104.96C172.929 104.075 172.363 102.957 172.15 101.75C171.937 100.543 172.087 99.2993 172.581 98.1771C173.075 97.0549 173.891 96.1044 174.925 95.4456C175.96 94.7869 177.167 94.4495 178.393 94.4763C179.62 94.503 180.811 94.8926 181.816 95.5958C183.162 96.54 184.078 97.9791 184.364 99.5976C184.649 101.216 184.281 102.882 183.339 104.229ZM174.448 98.007C173.92 98.7603 173.627 99.653 173.607 100.572C173.587 101.492 173.84 102.396 174.335 103.172C174.829 103.947 175.543 104.559 176.385 104.929C177.227 105.299 178.16 105.412 179.066 105.252C179.972 105.092 180.81 104.668 181.475 104.032C182.14 103.396 182.601 102.578 182.8 101.68C182.999 100.782 182.927 99.8455 182.594 98.9885C182.26 98.1316 181.68 97.3927 180.926 96.8653C179.915 96.1594 178.665 95.8832 177.451 96.0973C176.236 96.3113 175.156 96.9981 174.448 98.007Z" fill="#FF0003"/>
<path d="M191.964 161.463H15.0359C14.9584 161.463 14.8842 161.432 14.8294 161.378C14.7747 161.323 14.7439 161.249 14.7439 161.171C14.7439 161.094 14.7747 161.02 14.8294 160.965C14.8842 160.91 14.9584 160.879 15.0359 160.879H191.964C192.041 160.879 192.116 160.91 192.17 160.965C192.225 161.02 192.256 161.094 192.256 161.171C192.256 161.249 192.225 161.323 192.17 161.378C192.116 161.432 192.041 161.463 191.964 161.463Z" fill="#3F3D56"/>
<path d="M191.964 196.732H15.0359C14.9584 196.732 14.8842 196.701 14.8294 196.646C14.7747 196.591 14.7439 196.517 14.7439 196.44C14.7439 196.362 14.7747 196.288 14.8294 196.233C14.8842 196.179 14.9584 196.148 15.0359 196.148H191.964C192.041 196.148 192.116 196.179 192.17 196.233C192.225 196.288 192.256 196.362 192.256 196.44C192.256 196.517 192.225 196.591 192.17 196.646C192.116 196.701 192.041 196.732 191.964 196.732Z" fill="#3F3D56"/>
<path d="M191.964 232H15.0359C14.9584 232 14.8842 231.969 14.8294 231.914C14.7747 231.86 14.7439 231.786 14.7439 231.708C14.7439 231.631 14.7747 231.557 14.8294 231.502C14.8842 231.447 14.9584 231.416 15.0359 231.416H191.964C192.041 231.416 192.116 231.447 192.17 231.502C192.225 231.557 192.256 231.631 192.256 231.708C192.256 231.786 192.225 231.86 192.17 231.914C192.116 231.969 192.041 232 191.964 232Z" fill="#3F3D56"/>
</g>
<circle cx="99.5" cy="27.5" r="27.5" fill="#FF2929"/>
<path d="M101.235 38H97.6904V20.876L92.4609 22.6631V19.6602L100.781 16.5986H101.235V38Z" fill="white"/>
<defs>
<clipPath id="clip0">
<rect width="207" height="144" fill="white" transform="translate(0 88)"/>
</clipPath>
</defs>
</svg>
