<svg width="230" height="252" viewBox="0 0 230 252" fill="none" xmlns="http://www.w3.org/2000/svg">
<path d="M107.562 252C157.51 252 198.001 249.934 198.001 247.386C198.001 244.838 157.51 242.773 107.562 242.773C57.6136 242.773 17.1226 244.838 17.1226 247.386C17.1226 249.934 57.6136 252 107.562 252Z" fill="#F2F2F2"/>
<path d="M160.401 105.328H159.373V77.2505C159.373 72.9406 157.657 68.8072 154.602 65.7597C151.547 62.7121 147.404 61 143.083 61H83.4534C79.1331 61 74.9897 62.7121 71.9348 65.7596C68.8798 68.8072 67.1636 72.9405 67.1636 77.2504V231.286C67.1636 235.595 68.8798 239.729 71.9347 242.776C74.9897 245.824 79.133 247.536 83.4534 247.536H143.083C147.404 247.536 151.547 245.824 154.602 242.776C157.657 239.729 159.373 235.596 159.373 231.286V125.314H160.401L160.401 105.328Z" fill="#3F3D56"/>
<path d="M155.906 77.3639V231.172C155.906 234.391 154.624 237.478 152.342 239.754C150.061 242.03 146.967 243.308 143.74 243.309H83.824C80.5975 243.308 77.5032 242.03 75.2217 239.754C72.9402 237.478 71.6585 234.391 71.6584 231.172V77.3639C71.6585 74.1451 72.9403 71.0583 75.2217 68.7823C77.5032 66.5063 80.5975 65.2277 83.824 65.2276H91.0926C90.7354 66.1032 90.5994 67.0529 90.6965 67.9931C90.7936 68.9334 91.1209 69.8355 91.6494 70.62C92.178 71.4045 92.8918 72.0475 93.7279 72.4922C94.564 72.937 95.4969 73.1699 96.4444 73.1706H130.606C131.553 73.1699 132.486 72.937 133.322 72.4922C134.158 72.0474 134.872 71.4045 135.401 70.62C135.929 69.8355 136.257 68.9334 136.354 67.9931C136.451 67.0529 136.315 66.1032 135.958 65.2276H143.74C146.967 65.2277 150.061 66.5063 152.342 68.7823C154.624 71.0583 155.906 74.1451 155.906 77.3639Z" fill="white"/>
<path d="M136.604 143.685C136.205 143.893 135.8 144.089 135.388 144.275C135.013 144.444 134.632 144.603 134.245 144.752C134.104 144.805 133.96 144.859 133.816 144.913C132.678 145.325 131.51 145.646 130.322 145.874C129.733 145.99 129.137 146.08 128.533 146.146C128.035 146.202 127.531 146.242 127.023 146.266C126.66 146.284 126.298 146.292 125.933 146.292C124.488 146.293 123.047 146.158 121.627 145.89C121.257 145.823 120.895 145.744 120.533 145.656C118.78 145.237 117.084 144.613 115.479 143.796C115.335 143.724 115.191 143.647 115.047 143.573C114.834 143.46 114.626 143.342 114.418 143.219C114.518 143.08 114.626 142.945 114.736 142.811C115.938 141.325 117.441 140.108 119.146 139.24C120.852 138.372 122.721 137.872 124.633 137.773C126.545 137.674 128.456 137.977 130.243 138.665C132.029 139.352 133.65 140.407 135 141.76C135.469 142.23 135.903 142.732 136.3 143.262C136.406 143.401 136.506 143.542 136.604 143.685Z" fill="#FF0003"/>
<path d="M126.446 132.426C132.677 132.426 137.728 127.388 137.728 121.172C137.728 114.956 132.677 109.918 126.446 109.918C120.216 109.918 115.165 114.956 115.165 121.172C115.165 127.388 120.216 132.426 126.446 132.426Z" fill="#2F2E41"/>
<path d="M129.447 132.442C133.516 130.223 135.011 125.134 132.787 121.075C130.563 117.015 125.461 115.524 121.392 117.743C117.323 119.961 115.827 125.051 118.051 129.11C120.276 133.169 125.378 134.661 129.447 132.442Z" fill="#A0616A"/>
<path d="M134.242 119.824C132.323 121.143 130.046 121.845 127.716 121.836C128.547 122.411 129.493 122.799 130.489 122.974C127.391 123.637 124.189 123.655 121.083 123.027C120.393 122.916 119.727 122.688 119.114 122.352C118.809 122.182 118.543 121.95 118.333 121.67C118.124 121.391 117.976 121.071 117.899 120.731C117.692 119.555 118.611 118.486 119.566 117.766C121.027 116.68 122.713 115.932 124.5 115.576C126.287 115.22 128.131 115.264 129.898 115.706C131.053 116.004 132.209 116.507 132.959 117.431C133.708 118.356 133.931 119.782 133.216 120.734L134.242 119.824Z" fill="#2F2E41"/>
<path d="M125.933 100.156C120.89 100.156 115.986 101.8 111.966 104.838C107.947 107.877 105.034 112.143 103.671 116.986C102.307 121.83 102.569 126.985 104.416 131.666C106.262 136.348 109.593 140.299 113.899 142.916L114.048 143.004C114.171 143.078 114.295 143.15 114.418 143.219C114.626 143.342 114.834 143.46 115.047 143.573C115.191 143.647 115.335 143.724 115.479 143.796C117.084 144.613 118.78 145.237 120.533 145.656C120.895 145.744 121.257 145.823 121.627 145.89C123.047 146.158 124.489 146.293 125.933 146.292C126.298 146.292 126.661 146.284 127.023 146.266C127.532 146.243 128.035 146.203 128.534 146.146C129.137 146.079 129.734 145.989 130.322 145.874C131.51 145.646 132.679 145.325 133.816 144.913C133.96 144.859 134.104 144.805 134.245 144.752C134.633 144.603 135.014 144.444 135.388 144.275C135.8 144.09 136.205 143.894 136.604 143.685C140.604 141.596 143.909 138.393 146.12 134.466C146.131 134.445 146.144 134.425 146.154 134.404C147.333 132.293 148.17 130.008 148.633 127.635C149.283 124.295 149.185 120.853 148.345 117.555C147.505 114.257 145.945 111.185 143.775 108.559C141.606 105.933 138.882 103.818 135.797 102.365C132.713 100.913 129.344 100.158 125.933 100.156H125.933ZM145.732 134.105C145.712 134.14 145.694 134.176 145.673 134.21C143.507 138.079 140.247 141.227 136.301 143.262C135.907 143.468 135.507 143.66 135.101 143.839C134.764 143.99 134.42 144.134 134.073 144.267C133.926 144.324 133.778 144.38 133.629 144.431C132.646 144.789 131.639 145.077 130.615 145.292C129.855 145.454 129.088 145.574 128.315 145.654C127.84 145.705 127.357 145.741 126.871 145.759C126.56 145.772 126.247 145.779 125.933 145.779C124.535 145.781 123.14 145.651 121.766 145.392C120.93 145.239 120.104 145.037 119.292 144.787C118.054 144.406 116.852 143.92 115.697 143.334C115.564 143.265 115.43 143.196 115.299 143.124C115.112 143.024 114.921 142.922 114.736 142.811C114.598 142.734 114.459 142.652 114.323 142.57C114.243 142.524 114.163 142.476 114.084 142.427C110.308 140.114 107.296 136.746 105.422 132.741C103.548 128.735 102.893 124.269 103.54 119.897C104.187 115.524 106.106 111.437 109.06 108.142C112.014 104.848 115.873 102.491 120.158 101.365C124.442 100.238 128.964 100.391 133.162 101.805C137.36 103.218 141.05 105.83 143.773 109.317C146.497 112.803 148.134 117.011 148.482 121.417C148.831 125.824 147.875 130.235 145.732 134.105H145.732Z" fill="#3F3D56"/>
<path d="M120.733 110.073C120.612 108.8 119.048 108.016 117.825 108.4C116.602 108.785 115.799 110.013 115.557 111.269C115.44 111.798 115.429 112.345 115.524 112.878C115.62 113.411 115.82 113.92 116.113 114.376C116.731 115.264 117.867 115.817 118.926 115.592C120.136 115.335 120.974 114.157 121.213 112.947C121.453 111.737 121.215 110.489 120.977 109.278L120.733 110.073Z" fill="#2F2E41"/>
<path d="M137.943 111.892C137.821 110.619 136.258 109.835 135.035 110.219C133.812 110.604 133.009 111.832 132.766 113.088C132.65 113.617 132.639 114.164 132.734 114.697C132.83 115.23 133.03 115.739 133.323 116.195C133.941 117.083 135.077 117.636 136.136 117.411C137.346 117.154 138.183 115.976 138.423 114.766C138.663 113.556 138.425 112.308 138.187 111.097L137.943 111.892Z" fill="#2F2E41"/>
<path d="M85.9645 132.443C85.8045 132.443 85.6463 132.41 85.5 132.345C85.3537 132.28 85.2225 132.186 85.1149 132.068L72.3655 118.193C72.2208 118.036 72.0451 117.911 71.8493 117.825C71.6536 117.739 71.4421 117.694 71.2283 117.694H3.85633C2.83392 117.693 1.85371 117.287 1.13076 116.566C0.407806 115.845 0.00114791 114.867 0 113.847V89.6098C0.00114723 88.5898 0.407806 87.612 1.13076 86.8908C1.85371 86.1696 2.83392 85.7639 3.85633 85.7628H91.1418C92.1642 85.7639 93.1444 86.1696 93.8673 86.8908C94.5903 87.612 94.997 88.5898 94.9981 89.6098V113.847C94.9969 114.867 94.5903 115.845 93.8673 116.566C93.1444 117.287 92.1642 117.693 91.1418 117.694H88.6672C88.2582 117.694 87.866 117.857 87.5768 118.145C87.2876 118.434 87.1249 118.825 87.1244 119.233V131.288C87.1254 131.521 87.0554 131.748 86.9237 131.94C86.792 132.133 86.6048 132.28 86.387 132.364C86.2524 132.416 86.1091 132.443 85.9645 132.443Z" fill="white"/>
<path d="M85.9645 132.443C85.8045 132.443 85.6463 132.41 85.5 132.345C85.3537 132.28 85.2225 132.186 85.1149 132.068L72.3655 118.193C72.2208 118.036 72.0451 117.911 71.8493 117.825C71.6536 117.739 71.4421 117.694 71.2283 117.694H3.85633C2.83392 117.693 1.85371 117.287 1.13076 116.566C0.407806 115.845 0.00114791 114.867 0 113.847V89.6098C0.00114723 88.5898 0.407806 87.612 1.13076 86.8908C1.85371 86.1696 2.83392 85.7639 3.85633 85.7628H91.1418C92.1642 85.7639 93.1444 86.1696 93.8673 86.8908C94.5903 87.612 94.997 88.5898 94.9981 89.6098V113.847C94.9969 114.867 94.5903 115.845 93.8673 116.566C93.1444 117.287 92.1642 117.693 91.1418 117.694H88.6672C88.2582 117.694 87.866 117.857 87.5768 118.145C87.2876 118.434 87.1249 118.825 87.1244 119.233V131.288C87.1254 131.521 87.0554 131.748 86.9237 131.94C86.792 132.133 86.6048 132.28 86.387 132.364C86.2524 132.416 86.1091 132.443 85.9645 132.443ZM3.85633 86.2754C2.97016 86.2764 2.12057 86.628 1.49395 87.2531C0.86733 87.8782 0.514859 88.7257 0.513859 89.6098V113.847C0.514861 114.731 0.867334 115.579 1.49395 116.204C2.12057 116.829 2.97016 117.18 3.85633 117.181H71.2283C71.5134 117.182 71.7953 117.241 72.0562 117.356C72.3171 117.47 72.5514 117.637 72.7443 117.847L85.4937 131.722C85.5812 131.817 85.6955 131.883 85.8217 131.913C85.9479 131.942 86.0799 131.933 86.2007 131.886C86.3214 131.839 86.4251 131.757 86.4983 131.65C86.5714 131.544 86.6106 131.417 86.6106 131.288V119.233C86.6112 118.689 86.828 118.168 87.2136 117.783C87.5992 117.398 88.1219 117.182 88.6672 117.181H91.1418C92.0279 117.18 92.8775 116.829 93.5041 116.204C94.1308 115.579 94.4832 114.731 94.4842 113.847V89.6098C94.4832 88.7257 94.1308 87.8782 93.5042 87.2531C92.8775 86.628 92.0279 86.2764 91.1418 86.2754H3.85633Z" fill="#3F3D56"/>
<path d="M9.45891 96.4545C11.3226 96.4545 12.8333 94.9474 12.8333 93.0882C12.8333 91.2291 11.3226 89.7219 9.45891 89.7219C7.59526 89.7219 6.08447 91.2291 6.08447 93.0882C6.08447 94.9474 7.59526 96.4545 9.45891 96.4545Z" fill="#FF0003"/>
<path d="M87.2051 111.715H7.79331C7.55678 111.715 7.32253 111.669 7.10393 111.579C6.88533 111.489 6.68668 111.357 6.51934 111.19C6.35199 111.023 6.21923 110.825 6.12865 110.607C6.03808 110.389 5.99146 110.156 5.99146 109.92C5.99146 109.684 6.03808 109.45 6.12865 109.232C6.21923 109.014 6.35199 108.816 6.51934 108.649C6.68668 108.483 6.88533 108.35 7.10393 108.26C7.32253 108.17 7.55678 108.124 7.79331 108.124H87.2051C87.682 108.125 88.1392 108.314 88.4762 108.651C88.8133 108.988 89.0026 109.444 89.0026 109.92C89.0026 110.395 88.8133 110.852 88.4762 111.188C88.1392 111.525 87.682 111.714 87.2051 111.715Z" fill="#E6E6E6"/>
<path d="M61.3344 104.085H7.79331C7.55679 104.085 7.32253 104.039 7.10393 103.949C6.88534 103.859 6.68668 103.726 6.51934 103.56C6.35199 103.393 6.21923 103.195 6.12865 102.977C6.03808 102.759 5.99146 102.525 5.99146 102.289C5.99146 102.053 6.03808 101.82 6.12865 101.602C6.21923 101.384 6.35199 101.186 6.51934 101.019C6.68668 100.852 6.88534 100.72 7.10393 100.63C7.32253 100.54 7.55679 100.494 7.79331 100.494H61.3344C61.8117 100.494 62.2695 100.683 62.607 101.02C62.9445 101.357 63.1341 101.813 63.1341 102.289C63.1341 102.766 62.9445 103.222 62.607 103.559C62.2695 103.896 61.8117 104.085 61.3344 104.085Z" fill="#E6E6E6"/>
<path d="M142.613 214.639C142.395 214.555 142.208 214.408 142.076 214.216C141.945 214.024 141.875 213.796 141.876 213.563V201.508C141.875 201.1 141.712 200.709 141.423 200.42C141.134 200.132 140.742 199.97 140.333 199.969H137.858C136.836 199.968 135.856 199.562 135.133 198.841C134.41 198.12 134.003 197.142 134.002 196.122V171.885C134.003 170.865 134.41 169.887 135.133 169.166C135.856 168.445 136.836 168.039 137.858 168.038H225.144C226.166 168.039 227.146 168.445 227.869 169.166C228.592 169.887 228.999 170.865 229 171.885V196.122C228.999 197.142 228.592 198.12 227.869 198.841C227.146 199.562 226.166 199.968 225.144 199.969H157.772C157.558 199.969 157.346 200.014 157.151 200.1C156.955 200.186 156.779 200.311 156.635 200.468L143.885 214.343C143.777 214.461 143.646 214.556 143.5 214.62C143.354 214.685 143.196 214.718 143.036 214.718C142.891 214.718 142.748 214.691 142.613 214.639Z" fill="white"/>
<path d="M142.613 214.639C142.395 214.555 142.208 214.408 142.076 214.216C141.945 214.024 141.875 213.796 141.876 213.563V201.508C141.875 201.1 141.712 200.709 141.423 200.42C141.134 200.132 140.742 199.97 140.333 199.969H137.858C136.836 199.968 135.856 199.562 135.133 198.841C134.41 198.12 134.003 197.142 134.002 196.122V171.885C134.003 170.865 134.41 169.887 135.133 169.166C135.856 168.445 136.836 168.039 137.858 168.038H225.144C226.166 168.039 227.146 168.445 227.869 169.166C228.592 169.887 228.999 170.865 229 171.885V196.122C228.999 197.142 228.592 198.12 227.869 198.841C227.146 199.562 226.166 199.968 225.144 199.969H157.772C157.558 199.969 157.346 200.014 157.151 200.1C156.955 200.186 156.779 200.311 156.635 200.468L143.885 214.343C143.777 214.461 143.646 214.556 143.5 214.62C143.354 214.685 143.196 214.718 143.036 214.718C142.891 214.718 142.748 214.691 142.613 214.639ZM137.858 168.551C136.972 168.552 136.123 168.903 135.496 169.528C134.869 170.153 134.517 171.001 134.516 171.885V196.122C134.517 197.006 134.869 197.854 135.496 198.479C136.123 199.104 136.972 199.456 137.858 199.457H140.333C140.878 199.457 141.401 199.674 141.786 200.058C142.172 200.443 142.389 200.964 142.389 201.508V213.563C142.389 213.693 142.429 213.819 142.502 213.925C142.575 214.032 142.679 214.114 142.799 214.161C142.92 214.208 143.052 214.217 143.178 214.188C143.305 214.159 143.419 214.092 143.506 213.997L156.256 200.122C156.449 199.912 156.683 199.745 156.944 199.631C157.205 199.516 157.487 199.457 157.772 199.457H225.144C226.03 199.456 226.879 199.104 227.506 198.479C228.133 197.854 228.485 197.006 228.486 196.122V171.885C228.485 171.001 228.133 170.153 227.506 169.528C226.879 168.903 226.03 168.552 225.144 168.551H137.858Z" fill="#3F3D56"/>
<path d="M115.407 222.144C111.828 224.431 107.68 225.677 103.431 225.745C99.1807 225.812 94.996 224.698 91.3455 222.526C91.9877 221.333 92.8014 220.241 93.7607 219.284C95.2409 217.8 97.0423 216.675 99.0266 215.994C101.011 215.313 103.125 215.095 105.207 215.357C107.289 215.618 109.283 216.353 111.036 217.503C112.789 218.653 114.254 220.189 115.32 221.993C115.348 222.042 115.379 222.093 115.407 222.144Z" fill="#FF0003"/>
<path d="M102.372 209.887C108.644 209.887 113.728 204.815 113.728 198.558C113.728 192.301 108.644 187.229 102.372 187.229C96.0995 187.229 91.0149 192.301 91.0149 198.558C91.0149 204.815 96.0995 209.887 102.372 209.887Z" fill="#2F2E41"/>
<path d="M110.822 206.549C113.061 202.463 111.556 197.339 107.46 195.106C103.363 192.872 98.2278 194.374 95.9886 198.46C93.7495 202.546 95.2549 207.67 99.351 209.903C103.447 212.137 108.583 210.635 110.822 206.549Z" fill="#FFB8B8"/>
<path d="M94.5237 197.201C96.4552 198.529 98.7478 199.236 101.094 199.226C100.257 199.805 99.3042 200.196 98.3014 200.372C101.42 201.04 104.644 201.058 107.77 200.425C108.465 200.314 109.136 200.084 109.752 199.746C110.06 199.575 110.327 199.341 110.538 199.06C110.749 198.779 110.898 198.456 110.976 198.114C111.183 196.93 110.259 195.854 109.298 195.129C107.826 194.036 106.13 193.283 104.331 192.925C102.532 192.566 100.676 192.611 98.8962 193.056C97.7343 193.356 96.5703 193.862 95.8156 194.793C95.0609 195.723 94.8374 197.159 95.5564 198.117L94.5237 197.201Z" fill="#2F2E41"/>
<path d="M103.067 226.004C97.5047 226.002 92.1299 224 87.9281 220.365C83.7263 216.73 80.9792 211.705 80.1908 206.213C79.4023 200.72 80.6254 195.128 83.6356 190.463C86.6458 185.797 91.2413 182.371 96.5792 180.812C101.917 179.253 107.639 179.666 112.697 181.976C117.754 184.285 121.806 188.337 124.112 193.386C126.417 198.436 126.819 204.145 125.246 209.467C123.673 214.789 120.229 219.366 115.546 222.36C111.822 224.742 107.49 226.007 103.067 226.004ZM103.067 180.381C98.5942 180.381 94.2221 181.703 90.5033 184.182C86.7845 186.66 83.8859 190.183 82.1742 194.305C80.4625 198.427 80.0145 202.963 80.8869 207.339C81.7593 211.715 83.913 215.734 87.0754 218.889C90.2379 222.044 94.2672 224.192 98.6537 225.062C103.04 225.933 107.587 225.486 111.719 223.778C115.851 222.071 119.382 219.179 121.867 215.469C124.351 211.759 125.677 207.398 125.676 202.936C125.67 196.956 123.285 191.223 119.047 186.995C114.808 182.766 109.061 180.388 103.067 180.381Z" fill="#3F3D56"/>
<path d="M144.861 178.473C146.724 178.473 148.235 176.966 148.235 175.107C148.235 173.248 146.724 171.741 144.861 171.741C142.997 171.741 141.486 173.248 141.486 175.107C141.486 176.966 142.997 178.473 144.861 178.473Z" fill="#FF0003"/>
<path d="M222.607 193.734H143.195C142.959 193.734 142.724 193.688 142.506 193.598C142.287 193.508 142.089 193.376 141.921 193.209C141.754 193.042 141.621 192.844 141.531 192.626C141.44 192.408 141.393 192.175 141.393 191.939C141.393 191.703 141.44 191.469 141.531 191.251C141.621 191.033 141.754 190.835 141.921 190.668C142.089 190.502 142.287 190.369 142.506 190.279C142.724 190.189 142.959 190.143 143.195 190.143H222.607C223.084 190.143 223.542 190.332 223.88 190.669C224.217 191.006 224.407 191.462 224.407 191.939C224.407 192.415 224.217 192.871 223.88 193.208C223.542 193.545 223.084 193.734 222.607 193.734Z" fill="#E6E6E6"/>
<path d="M196.736 186.104H143.195C142.959 186.104 142.724 186.058 142.506 185.968C142.287 185.878 142.089 185.745 141.921 185.579C141.754 185.412 141.621 185.214 141.531 184.996C141.44 184.778 141.393 184.544 141.393 184.308C141.393 184.072 141.44 183.839 141.531 183.621C141.621 183.403 141.754 183.205 141.921 183.038C142.089 182.871 142.287 182.739 142.506 182.649C142.724 182.559 142.959 182.513 143.195 182.513H196.736C197.213 182.514 197.67 182.703 198.007 183.04C198.344 183.376 198.534 183.833 198.534 184.308C198.534 184.784 198.344 185.24 198.007 185.577C197.67 185.914 197.213 186.103 196.736 186.104Z" fill="#E6E6E6"/>
<path d="M142.504 216.933C145.981 216.933 148.8 216.621 148.8 216.236C148.8 215.851 145.981 215.539 142.504 215.539C139.027 215.539 136.208 215.851 136.208 216.236C136.208 216.621 139.027 216.933 142.504 216.933Z" fill="#F2F2F2"/>
<path d="M86.2367 134.915C89.7138 134.915 92.5325 134.602 92.5325 134.217C92.5325 133.832 89.7138 133.52 86.2367 133.52C82.7596 133.52 79.9409 133.832 79.9409 134.217C79.9409 134.602 82.7596 134.915 86.2367 134.915Z" fill="#F2F2F2"/>
<g clip-path="url(#clip0)">
<path d="M230 167H133.304V231.918H230V167Z" fill="url(#paint0_linear)"/>
<path d="M228.912 174.67H134.15V229.954H228.912V174.67Z" fill="white"/>
<path d="M228.912 168.35H134.15V174.67H228.912V168.35Z" fill="#FF0003"/>
<path d="M227.824 178.658H135.48V226.886H227.824V178.658Z" fill="url(#paint1_linear)"/>
<path opacity="0.5" d="M147.748 179.517H136.628V188.537H147.748V179.517Z" fill="#FF0003"/>
<path d="M158.989 179.517H147.869V188.537H158.989V179.517Z" fill="white"/>
<path opacity="0.2" d="M170.23 179.517H159.11V188.537H170.23V179.517Z" fill="#FF0003"/>
<path d="M181.471 179.517H170.351V188.537H181.471V179.517Z" fill="white"/>
<path d="M192.712 179.517H181.592V188.537H192.712V179.517Z" fill="white"/>
<path opacity="0.5" d="M203.953 179.517H192.833V188.537H203.953V179.517Z" fill="#FF0003"/>
<path d="M215.194 179.517H204.073V188.537H215.194V179.517Z" fill="white"/>
<path opacity="0.2" d="M226.434 179.517H215.314V188.537H226.434V179.517Z" fill="#FF0003"/>
<path opacity="0.2" d="M147.748 188.721H136.628V197.741H147.748V188.721Z" fill="#FF0003"/>
<path opacity="0.2" d="M158.989 188.721H147.869V197.741H158.989V188.721Z" fill="#FF0003"/>
<path d="M170.23 188.721H159.11V197.741H170.23V188.721Z" fill="white"/>
<path opacity="0.5" d="M181.471 188.721H170.351V197.741H181.471V188.721Z" fill="#FF0003"/>
<path d="M192.712 188.721H181.592V197.741H192.712V188.721Z" fill="white"/>
<path opacity="0.2" d="M203.953 188.721H192.833V197.741H203.953V188.721Z" fill="#FF0003"/>
<path opacity="0.5" d="M215.194 188.721H204.073V197.741H215.194V188.721Z" fill="#FF0003"/>
<path d="M226.434 188.721H215.314V197.741H226.434V188.721Z" fill="white"/>
<path d="M147.748 197.802H136.628V206.822H147.748V197.802Z" fill="white"/>
<path d="M158.989 197.802H147.869V206.822H158.989V197.802Z" fill="white"/>
<path opacity="0.2" d="M170.23 197.802H159.11V206.822H170.23V197.802Z" fill="#FF0003"/>
<path d="M181.471 197.802H170.351V206.822H181.471V197.802Z" fill="white"/>
<path opacity="0.2" d="M192.712 197.802H181.592V206.822H192.712V197.802Z" fill="#FF0003"/>
<path d="M203.953 197.802H192.833V206.822H203.953V197.802Z" fill="white"/>
<path d="M215.194 197.802H204.073V206.822H215.194V197.802Z" fill="white"/>
<path opacity="0.2" d="M226.434 197.802H215.314V206.822H226.434V197.802Z" fill="#FF0003"/>
<path d="M147.748 206.883H136.628V215.903H147.748V206.883Z" fill="white"/>
<path opacity="0.5" d="M158.989 206.883H147.869V215.903H158.989V206.883Z" fill="#FF0003"/>
<path opacity="0.5" d="M170.23 206.883H159.11V215.903H170.23V206.883Z" fill="#FF0003"/>
<path d="M181.471 206.883H170.351V215.903H181.471V206.883Z" fill="white"/>
<path d="M192.712 206.883H181.592V215.903H192.712V206.883Z" fill="white"/>
<path opacity="0.5" d="M203.953 206.883H192.833V215.903H203.953V206.883Z" fill="#FF0003"/>
<path d="M215.194 206.883H204.073V215.903H215.194V206.883Z" fill="white"/>
<path opacity="0.5" d="M226.434 206.883H215.314V215.903H226.434V206.883Z" fill="#FF0003"/>
<path opacity="0.5" d="M147.748 216.087H136.628V225.107H147.748V216.087Z" fill="#FF0003"/>
<path opacity="0.2" d="M158.989 216.087H147.869V225.107H158.989V216.087Z" fill="#FF0003"/>
<path d="M170.23 216.087H159.11V225.107H170.23V216.087Z" fill="white"/>
<path opacity="0.5" d="M181.471 216.087H170.351V225.107H181.471V216.087Z" fill="#FF0003"/>
<path opacity="0.2" d="M192.712 216.087H181.592V225.107H192.712V216.087Z" fill="#FF0003"/>
<path d="M203.953 216.087H192.833V225.107H203.953V216.087Z" fill="white"/>
<path opacity="0.2" d="M215.194 216.087H204.073V225.107H215.194V216.087Z" fill="#FF0003"/>
<path d="M226.434 216.087H215.314V225.107H226.434V216.087Z" fill="white"/>
<path d="M140.919 198.661H137.534V202.097H140.919V198.661Z" fill="#69F0AE"/>
<path d="M174.521 180.499H171.137V183.935H174.521V180.499Z" fill="#69F0AE"/>
<path d="M174.158 198.661H170.774V202.097H174.158V198.661Z" fill="#69F0AE"/>
<path d="M185.641 207.374H182.257V210.81H185.641V207.374Z" fill="#69F0AE"/>
<path d="M208.002 198.661H204.618V202.097H208.002V198.661Z" fill="#69F0AE"/>
<path d="M149.735 248C161.187 248 170.47 238.575 170.47 226.948C170.47 215.321 161.187 205.895 149.735 205.895C138.283 205.895 129 215.321 129 226.948C129 238.575 138.283 248 149.735 248Z" fill="url(#paint2_linear)"/>
<path d="M149.735 247.432C160.878 247.432 169.911 238.261 169.911 226.948C169.911 215.635 160.878 206.464 149.735 206.464C138.593 206.464 129.56 215.635 129.56 226.948C129.56 238.261 138.593 247.432 149.735 247.432Z" fill="#FF0003"/>
<path d="M149.735 243.591C158.789 243.591 166.128 236.139 166.128 226.948C166.128 217.756 158.789 210.305 149.735 210.305C140.682 210.305 133.343 217.756 133.343 226.948C133.343 236.139 140.682 243.591 149.735 243.591Z" fill="white"/>
<path d="M149.735 227.943C150.277 227.943 150.716 227.497 150.716 226.948C150.716 226.398 150.277 225.953 149.735 225.953C149.194 225.953 148.755 226.398 148.755 226.948C148.755 227.497 149.194 227.943 149.735 227.943Z" fill="url(#paint3_linear)"/>
<path d="M150.105 227.07L149.5 226.864L154.94 213.94L155.544 214.228L150.105 227.07Z" fill="url(#paint4_linear)"/>
<path d="M155.005 214.058L149.681 226.861L150.068 227.027L155.392 214.225L155.005 214.058Z" fill="#2196F3"/>
<path d="M153.127 233.82L149.621 227.193L150.105 226.948L153.731 233.452L153.127 233.82Z" fill="url(#paint5_linear)"/>
<path d="M150.058 226.992L149.689 227.196L153.191 233.74L153.561 233.536L150.058 226.992Z" fill="#2196F3"/>
<path d="M165.007 227.802C165.24 227.802 165.428 227.611 165.428 227.375C165.428 227.139 165.24 226.948 165.007 226.948C164.775 226.948 164.587 227.139 164.587 227.375C164.587 227.611 164.775 227.802 165.007 227.802Z" fill="#FF0003"/>
<path d="M137.054 219.557C137.205 219.292 137.115 218.953 136.854 218.8C136.592 218.646 136.258 218.737 136.107 219.003C135.957 219.268 136.046 219.607 136.307 219.76C136.569 219.913 136.903 219.823 137.054 219.557Z" fill="url(#paint6_linear)"/>
<path d="M136.993 235.549C137.255 235.396 137.344 235.057 137.193 234.792C137.042 234.526 136.708 234.435 136.447 234.589C136.186 234.742 136.096 235.081 136.247 235.346C136.398 235.612 136.732 235.702 136.993 235.549Z" fill="url(#paint7_linear)"/>
<path d="M134.465 227.93C134.766 227.93 135.011 227.681 135.011 227.375C135.011 227.068 134.766 226.82 134.465 226.82C134.163 226.82 133.918 227.068 133.918 227.375C133.918 227.681 134.163 227.93 134.465 227.93Z" fill="url(#paint8_linear)"/>
<path d="M142.429 214.071C142.69 213.917 142.78 213.578 142.629 213.313C142.478 213.048 142.144 212.957 141.883 213.11C141.622 213.263 141.532 213.602 141.683 213.868C141.834 214.133 142.168 214.224 142.429 214.071Z" fill="url(#paint9_linear)"/>
<path d="M149.995 212.08C150.256 211.927 150.345 211.587 150.195 211.322C150.044 211.057 149.71 210.966 149.448 211.119C149.187 211.272 149.097 211.611 149.248 211.877C149.399 212.142 149.733 212.233 149.995 212.08Z" fill="url(#paint10_linear)"/>
<path d="M157.56 214.071C157.822 213.918 157.911 213.579 157.76 213.313C157.61 213.048 157.275 212.957 157.014 213.11C156.753 213.264 156.663 213.603 156.814 213.868C156.965 214.133 157.299 214.224 157.56 214.071Z" fill="url(#paint11_linear)"/>
<path d="M163.164 219.761C163.426 219.608 163.515 219.269 163.364 219.004C163.214 218.738 162.879 218.647 162.618 218.801C162.357 218.954 162.267 219.293 162.418 219.558C162.569 219.824 162.903 219.914 163.164 219.761Z" fill="url(#paint12_linear)"/>
<path d="M163.025 235.551C163.286 235.397 163.376 235.058 163.225 234.793C163.074 234.528 162.74 234.437 162.478 234.59C162.217 234.743 162.128 235.082 162.279 235.347C162.429 235.613 162.764 235.704 163.025 235.551Z" fill="url(#paint13_linear)"/>
<path d="M157.28 241.098C157.542 240.945 157.631 240.605 157.48 240.34C157.329 240.075 156.995 239.984 156.734 240.137C156.473 240.29 156.383 240.629 156.534 240.895C156.685 241.16 157.019 241.251 157.28 241.098Z" fill="url(#paint14_linear)"/>
<path d="M149.994 242.806C150.256 242.652 150.345 242.313 150.194 242.048C150.043 241.783 149.709 241.692 149.448 241.845C149.187 241.998 149.097 242.337 149.248 242.603C149.399 242.868 149.733 242.959 149.994 242.806Z" fill="url(#paint15_linear)"/>
<path d="M142.709 241.098C142.971 240.945 143.06 240.606 142.909 240.341C142.759 240.075 142.424 239.984 142.163 240.138C141.902 240.291 141.812 240.63 141.963 240.895C142.114 241.161 142.448 241.252 142.709 241.098Z" fill="url(#paint16_linear)"/>
<path d="M149.735 212.012C149.967 212.012 150.156 211.821 150.156 211.585C150.156 211.349 149.967 211.158 149.735 211.158C149.503 211.158 149.314 211.349 149.314 211.585C149.314 211.821 149.503 212.012 149.735 212.012Z" fill="#69F0AE"/>
<path d="M157.665 213.856C157.782 213.652 157.713 213.391 157.511 213.273C157.31 213.155 157.053 213.225 156.937 213.429C156.821 213.633 156.89 213.894 157.091 214.012C157.292 214.13 157.549 214.06 157.665 213.856Z" fill="#69F0AE"/>
<path d="M163.049 219.636C163.25 219.518 163.319 219.257 163.203 219.053C163.087 218.849 162.83 218.779 162.629 218.896C162.427 219.014 162.359 219.276 162.475 219.48C162.591 219.684 162.848 219.754 163.049 219.636Z" fill="#69F0AE"/>
<path d="M163.116 235.283C163.232 235.078 163.163 234.817 162.962 234.699C162.76 234.581 162.503 234.651 162.387 234.856C162.271 235.06 162.34 235.321 162.541 235.439C162.742 235.557 162.999 235.487 163.116 235.283Z" fill="#69F0AE"/>
<path d="M157.217 240.958C157.418 240.84 157.487 240.579 157.371 240.375C157.255 240.17 156.998 240.1 156.797 240.218C156.595 240.336 156.527 240.597 156.643 240.802C156.759 241.006 157.016 241.076 157.217 240.958Z" fill="#69F0AE"/>
<path d="M142.38 214.014C142.581 213.896 142.65 213.635 142.534 213.43C142.417 213.226 142.16 213.156 141.959 213.274C141.758 213.392 141.689 213.653 141.805 213.857C141.921 214.062 142.178 214.132 142.38 214.014Z" fill="#69F0AE"/>
<path d="M136.996 219.48C137.112 219.276 137.043 219.015 136.842 218.897C136.641 218.779 136.384 218.849 136.267 219.053C136.151 219.257 136.22 219.518 136.421 219.636C136.623 219.754 136.88 219.684 136.996 219.48Z" fill="#69F0AE"/>
<path d="M165.267 227.87C165.528 227.717 165.618 227.377 165.467 227.112C165.316 226.847 164.982 226.756 164.72 226.909C164.459 227.062 164.37 227.401 164.52 227.667C164.671 227.932 165.005 228.023 165.267 227.87Z" fill="#69F0AE"/>
<path d="M136.93 235.439C137.132 235.321 137.201 235.06 137.084 234.855C136.968 234.651 136.711 234.581 136.51 234.699C136.309 234.817 136.24 235.078 136.356 235.282C136.472 235.487 136.729 235.557 136.93 235.439Z" fill="#69F0AE"/>
<path d="M142.828 240.802C142.944 240.598 142.875 240.337 142.674 240.219C142.473 240.101 142.215 240.171 142.099 240.375C141.983 240.579 142.052 240.841 142.253 240.959C142.454 241.077 142.712 241.007 142.828 240.802Z" fill="#69F0AE"/>
<path d="M134.465 227.802C134.697 227.802 134.885 227.611 134.885 227.375C134.885 227.139 134.697 226.948 134.465 226.948C134.232 226.948 134.044 227.139 134.044 227.375C134.044 227.611 134.232 227.802 134.465 227.802Z" fill="#69F0AE"/>
<path d="M149.735 242.737C149.967 242.737 150.156 242.545 150.156 242.31C150.156 242.074 149.967 241.883 149.735 241.883C149.503 241.883 149.314 242.074 149.314 242.31C149.314 242.545 149.503 242.737 149.735 242.737Z" fill="#69F0AE"/>
<path opacity="0.2" d="M134.184 228.512C134.185 224.845 135.379 221.281 137.581 218.373C139.782 215.465 142.868 213.377 146.358 212.433C149.849 211.489 153.548 211.741 156.883 213.152C160.217 214.562 163 217.051 164.798 220.231C163.916 218.15 162.624 216.274 161.003 214.718C159.381 213.161 157.464 211.957 155.368 211.18C153.272 210.402 151.042 210.066 148.814 210.194C146.586 210.322 144.407 210.91 142.411 211.923C140.415 212.936 138.643 214.352 137.205 216.084C135.767 217.816 134.692 219.828 134.046 221.996C133.4 224.165 133.197 226.445 133.45 228.696C133.702 230.947 134.404 233.122 135.514 235.088C134.634 233.011 134.181 230.773 134.184 228.512Z" fill="#FF0003"/>
<path d="M149.735 227.659C150.122 227.659 150.436 227.341 150.436 226.948C150.436 226.555 150.122 226.236 149.735 226.236C149.348 226.236 149.034 226.555 149.034 226.948C149.034 227.341 149.348 227.659 149.735 227.659Z" fill="#69F0AE"/>
</g>
<circle cx="114.5" cy="27.5" r="27.5" fill="#FF2929"/>
<path d="M120.938 38H106.597V35.5537L113.701 27.8047C114.727 26.6621 115.454 25.71 115.884 24.9482C116.323 24.1768 116.543 23.4053 116.543 22.6338C116.543 21.6182 116.255 20.7979 115.679 20.1729C115.112 19.5479 114.346 19.2354 113.379 19.2354C112.227 19.2354 111.333 19.5869 110.698 20.29C110.063 20.9932 109.746 21.9551 109.746 23.1758H106.187C106.187 21.877 106.479 20.71 107.065 19.6748C107.661 18.6299 108.506 17.8193 109.6 17.2432C110.703 16.667 111.973 16.3789 113.408 16.3789C115.479 16.3789 117.109 16.9014 118.301 17.9463C119.502 18.9814 120.103 20.417 120.103 22.2529C120.103 23.3174 119.8 24.4355 119.194 25.6074C118.599 26.7695 117.617 28.0928 116.25 29.5771L111.035 35.1582H120.938V38Z" fill="white"/>
<defs>
<linearGradient id="paint0_linear" x1="181.652" y1="231.918" x2="181.652" y2="167" gradientUnits="userSpaceOnUse">
<stop stop-color="#808080" stop-opacity="0.25"/>
<stop offset="0.54" stop-color="#808080" stop-opacity="0.12"/>
<stop offset="1" stop-color="#808080" stop-opacity="0.1"/>
</linearGradient>
<linearGradient id="paint1_linear" x1="40361.7" y1="23714" x2="40361.7" y2="4760.33" gradientUnits="userSpaceOnUse">
<stop stop-color="#808080" stop-opacity="0.25"/>
<stop offset="0.54" stop-color="#808080" stop-opacity="0.12"/>
<stop offset="1" stop-color="#808080" stop-opacity="0.1"/>
</linearGradient>
<linearGradient id="paint2_linear" x1="7243.25" y1="27997" x2="7243.25" y2="13550.9" gradientUnits="userSpaceOnUse">
<stop stop-color="#808080" stop-opacity="0.25"/>
<stop offset="0.54" stop-color="#808080" stop-opacity="0.12"/>
<stop offset="1" stop-color="#808080" stop-opacity="0.1"/>
</linearGradient>
<linearGradient id="paint3_linear" x1="485.081" y1="1214.45" x2="485.081" y2="1182.14" gradientUnits="userSpaceOnUse">
<stop stop-color="#808080" stop-opacity="0.25"/>
<stop offset="0.54" stop-color="#808080" stop-opacity="0.12"/>
<stop offset="1" stop-color="#808080" stop-opacity="0.1"/>
</linearGradient>
<linearGradient id="paint4_linear" x1="1325.62" y1="6641.46" x2="1325.62" y2="5236.46" gradientUnits="userSpaceOnUse">
<stop stop-color="#808080" stop-opacity="0.25"/>
<stop offset="0.54" stop-color="#808080" stop-opacity="0.12"/>
<stop offset="1" stop-color="#808080" stop-opacity="0.1"/>
</linearGradient>
<linearGradient id="paint5_linear" x1="920.618" y1="3968.84" x2="920.618" y2="3583.99" gradientUnits="userSpaceOnUse">
<stop stop-color="#808080" stop-opacity="0.25"/>
<stop offset="0.54" stop-color="#808080" stop-opacity="0.12"/>
<stop offset="1" stop-color="#808080" stop-opacity="0.1"/>
</linearGradient>
<linearGradient id="paint6_linear" x1="-313.96" y1="1097.96" x2="-305.351" y2="1093.07" gradientUnits="userSpaceOnUse">
<stop stop-color="#808080" stop-opacity="0.25"/>
<stop offset="0.54" stop-color="#808080" stop-opacity="0.12"/>
<stop offset="1" stop-color="#808080" stop-opacity="0.1"/>
</linearGradient>
<linearGradient id="paint7_linear" x1="405.045" y1="987.941" x2="405.045" y2="977.924" gradientUnits="userSpaceOnUse">
<stop stop-color="#808080" stop-opacity="0.25"/>
<stop offset="0.54" stop-color="#808080" stop-opacity="0.12"/>
<stop offset="1" stop-color="#808080" stop-opacity="0.1"/>
</linearGradient>
<linearGradient id="paint8_linear" x1="43.4903" y1="1116.57" x2="48.543" y2="1107.95" gradientUnits="userSpaceOnUse">
<stop stop-color="#808080" stop-opacity="0.25"/>
<stop offset="0.54" stop-color="#808080" stop-opacity="0.12"/>
<stop offset="1" stop-color="#808080" stop-opacity="0.1"/>
</linearGradient>
<linearGradient id="paint9_linear" x1="-617.419" y1="883.773" x2="-607.541" y2="883.773" gradientUnits="userSpaceOnUse">
<stop stop-color="#808080" stop-opacity="0.25"/>
<stop offset="0.54" stop-color="#808080" stop-opacity="0.12"/>
<stop offset="1" stop-color="#808080" stop-opacity="0.1"/>
</linearGradient>
<linearGradient id="paint10_linear" x1="-547.075" y1="873.481" x2="-537.197" y2="873.481" gradientUnits="userSpaceOnUse">
<stop stop-color="#808080" stop-opacity="0.25"/>
<stop offset="0.54" stop-color="#808080" stop-opacity="0.12"/>
<stop offset="1" stop-color="#808080" stop-opacity="0.1"/>
</linearGradient>
<linearGradient id="paint11_linear" x1="-480.634" y1="899.159" x2="-470.767" y2="899.159" gradientUnits="userSpaceOnUse">
<stop stop-color="#808080" stop-opacity="0.25"/>
<stop offset="0.54" stop-color="#808080" stop-opacity="0.12"/>
<stop offset="1" stop-color="#808080" stop-opacity="0.1"/>
</linearGradient>
<linearGradient id="paint12_linear" x1="-435.57" y1="956.303" x2="-425.692" y2="956.303" gradientUnits="userSpaceOnUse">
<stop stop-color="#808080" stop-opacity="0.25"/>
<stop offset="0.54" stop-color="#808080" stop-opacity="0.12"/>
<stop offset="1" stop-color="#808080" stop-opacity="0.1"/>
</linearGradient>
<linearGradient id="paint13_linear" x1="-452.386" y1="1098.86" x2="-442.509" y2="1098.86" gradientUnits="userSpaceOnUse">
<stop stop-color="#808080" stop-opacity="0.25"/>
<stop offset="0.54" stop-color="#808080" stop-opacity="0.12"/>
<stop offset="1" stop-color="#808080" stop-opacity="0.1"/>
</linearGradient>
<linearGradient id="paint14_linear" x1="-509.776" y1="1143.16" x2="-499.909" y2="1143.16" gradientUnits="userSpaceOnUse">
<stop stop-color="#808080" stop-opacity="0.25"/>
<stop offset="0.54" stop-color="#808080" stop-opacity="0.12"/>
<stop offset="1" stop-color="#808080" stop-opacity="0.1"/>
</linearGradient>
<linearGradient id="paint15_linear" x1="-577.336" y1="1151.21" x2="-567.459" y2="1151.21" gradientUnits="userSpaceOnUse">
<stop stop-color="#808080" stop-opacity="0.25"/>
<stop offset="0.54" stop-color="#808080" stop-opacity="0.12"/>
<stop offset="1" stop-color="#808080" stop-opacity="0.1"/>
</linearGradient>
<linearGradient id="paint16_linear" x1="-641.508" y1="1128.37" x2="-631.641" y2="1128.37" gradientUnits="userSpaceOnUse">
<stop stop-color="#808080" stop-opacity="0.25"/>
<stop offset="0.54" stop-color="#808080" stop-opacity="0.12"/>
<stop offset="1" stop-color="#808080" stop-opacity="0.1"/>
</linearGradient>
<clipPath id="clip0">
<rect width="101" height="81" fill="white" transform="translate(129 167)"/>
</clipPath>
</defs>
</svg>
